<svg width="100" height="77.465" viewBox="0 0 100 77.465" fill="none" xmlns="http://www.w3.org/2000/svg"><g clip-path="url(#clip0)"><path d="M84.654 6.898C78.281 3.973 71.446 1.819 64.3 0.585C64.169 0.562 64.039 0.621 63.972 0.739C63.094 2.303 62.12 4.343 61.438 5.946C53.752 4.795 46.105 4.795 38.577 5.946C37.895 4.307 36.885 2.303 36.002 0.739C35.935 0.624 35.805 0.565 35.676 0.585C28.533 1.815 21.698 3.97 15.32 6.898C15.265 6.922 15.218 6.962 15.186 7.014C2.222 26.382 -1.329 45.273 0.413 63.932C0.421 64.022 0.472 64.111 0.544 64.166C9.097 70.447 17.382 74.261 25.514 76.788C25.644 76.828 25.782 76.78 25.865 76.673C27.788 74.046 29.503 71.277 30.972 68.364C31.06 68.194 30.977 67.99 30.799 67.923C28.08 66.891 25.49 65.634 22.999 64.205C22.802 64.09 22.786 63.809 22.967 63.673C23.491 63.281 24.016 62.872 24.516 62.46C24.607 62.384 24.733 62.368 24.839 62.416C41.205 69.887 58.923 69.887 75.096 62.416C75.202 62.364 75.329 62.38 75.422 62.455C75.923 62.868 76.448 63.281 76.976 63.673C77.157 63.809 77.146 64.09 76.948 64.205C74.457 65.662 71.867 66.891 69.144 67.919C68.966 67.987 68.887 68.194 68.974 68.364C70.476 71.272 72.19 74.043 74.079 76.669C74.157 76.78 74.299 76.828 74.43 76.788C82.601 74.261 90.886 70.447 99.439 64.166C99.514 64.111 99.562 64.027 99.569 63.935C101.654 42.365 96.077 23.628 84.784 7.017C84.756 6.962 84.71 6.922 84.654 6.898ZM33.417 52.571C28.489 52.571 24.43 48.047 24.43 42.491C24.43 36.936 28.411 32.413 33.417 32.413C38.462 32.413 42.483 36.977 42.403 42.491C42.403 48.047 38.422 52.571 33.417 52.571ZM66.645 52.571C61.718 52.571 57.657 48.047 57.657 42.491C57.657 36.936 61.639 32.413 66.645 32.413C71.69 32.413 75.711 36.977 75.632 42.491C75.632 48.047 71.69 52.571 66.645 52.571Z" fill="#5865F2"/></g><defs><clipPath id="clip0"><path width="71" height="55" fill="white" d="M0 0H100V77.465H0V0z"/></clipPath></defs></svg>