<?xml version="1.0" encoding="UTF-8"?>
<svg width="378px" height="421px" viewBox="0 0 378 421" version="1.1" xmlns="http://www.w3.org/2000/svg" xmlns:xlink="http://www.w3.org/1999/xlink">
    <!-- Generator: Sketch 53.1 (72631) - https://sketchapp.com -->
    <title>Group 253@2x</title>
    <desc>Created with Sketch.</desc>
    <defs>
        <polygon id="path-1" points="0.721572199 0.500702804 149.251967 0.500702804 149.251967 96.2285159 0.721572199 96.2285159"></polygon>
    </defs>
    <g id="Welcome" stroke="none" stroke-width="1" fill="none" fill-rule="evenodd">
        <g id="design-01-b-copy-7" transform="translate(-216.000000, -378.000000)">
            <g id="Group-253" transform="translate(216.000000, 378.000000)">
                <path d="M15.4404452,118.275303 L78.4333078,159.237594 L140.559555,118.396797 L77.5753035,78.1070343 L15.4404452,118.275303 Z M78.4356564,160.174274 L14,118.273736 L77.572955,77.1742739 L77.7851075,77.3106607 L142,118.388175 L78.4356564,160.174274 Z" id="Fill-1" fill="#582FFF"></path>
                <path d="M17.3252943,118.27429 L78.9325294,158.36143 L139.676273,118.403038 L78.077657,78.9745565 L17.3252943,118.27429 Z M78.938798,161.174274 L13,118.268794 L78.072172,76.1742739 L78.708429,76.5840713 L144,118.376346 L78.938798,161.174274 Z" id="Fill-2" fill="#582FFF"></path>
                <g id="Group-252" transform="translate(0.000000, 0.174274)">
                    <path d="M16.069078,118.203544 L78.5535759,158.827357 L140.172281,118.328366 L77.69641,78.371843 L16.069078,118.203544 Z M78.5559286,160.426497 C78.4147668,160.426497 78.2767419,160.385675 78.1583228,160.307955 L14.3327876,118.81274 C14.1241817,118.676927 14.0010573,118.448479 14.0010573,118.201189 C14.0010573,117.953114 14.1257502,117.72388 14.3351402,117.588852 L77.2995884,76.892815 C77.416439,76.8166654 77.5528954,76.775843 77.6940573,76.775843 C77.838356,76.7774131 77.973244,76.8174505 78.0877419,76.8912449 L141.903866,117.705824 C142.112472,117.839282 142.237949,118.066946 142.239518,118.315806 C142.241086,118.563095 142.118746,118.793114 141.911709,118.928927 L78.9558871,160.306385 C78.8398207,160.384105 78.7002274,160.426497 78.5559286,160.426497 L78.5559286,160.426497 Z" id="Fill-3" fill="#582FFF"></path>
                    <path d="M17.5119871,118.205507 L78.5511448,157.890404 L138.729215,118.337394 L77.6986842,79.304871 L17.5119871,118.205507 Z M78.5558502,161.211151 C78.2609788,161.211151 77.9755183,161.127151 77.7292693,160.966217 L13.9053025,119.471787 C13.4731905,119.188385 13.2167465,118.714217 13.2167465,118.201581 C13.2167465,117.684236 13.4763274,117.208497 13.9107921,116.929021 L76.8736718,76.2329832 C77.1183523,76.0751888 77.4022444,75.9911888 77.6939788,75.9911888 C77.9927714,75.994329 78.2727423,76.0767589 78.511149,76.230628 L142.326489,117.044422 C142.76017,117.321544 143.021319,117.794927 143.023672,118.310703 C143.026809,118.827264 142.771933,119.303002 142.340605,119.585619 L79.3863523,160.963077 C79.1432402,161.125581 78.8546427,161.211151 78.5558502,161.211151 L78.5558502,161.211151 Z" id="Fill-5" fill="#582FFF"></path>
                    <path d="M78.9459274,159.911114 L78.2048278,227.904011 L139.543562,187.028198 L141.102616,119.058067 L78.9459274,159.911114 Z M77.4041266,229.380684 L78.1664004,159.484834 L78.3412842,159.370217 L141.921355,117.582179 L140.3176,187.454479 L140.147421,187.567525 L77.4041266,229.380684 Z" id="Fill-7" fill="#582FFF"></path>
                    <path d="M79.7255328,160.338101 L79.0048232,226.42883 L138.768819,186.601054 L140.283956,120.535447 L79.7255328,160.338101 Z M76.604288,230.858064 L77.3869519,159.058475 L77.9100349,158.714624 L142.739388,116.104643 L141.091715,187.881465 L76.604288,230.858064 Z" id="Fill-9" fill="#582FFF"></path>
                    <path d="M79.2802456,160.093559 L78.5469884,227.271578 L139.211283,186.845596 L140.751515,119.691129 L79.2802456,160.093559 Z M77.8043203,229.371578 C77.6811959,229.371578 77.563561,229.341746 77.4553369,229.282082 C77.2184988,229.15412 77.0726315,228.90526 77.0757685,228.635989 L77.8278473,159.68926 C77.8309842,159.44668 77.9533245,159.222157 78.1564407,159.088699 L141.112262,117.710456 C141.333416,117.565222 141.635345,117.552662 141.866694,117.682979 C142.103532,117.815652 142.246262,118.066082 142.239204,118.336923 L140.658192,187.259316 C140.653486,187.4964 140.53193,187.717783 140.332735,187.848886 L78.2074158,229.249895 C78.0874282,229.329185 77.9478349,229.371578 77.8043203,229.371578 L77.8043203,229.371578 Z" id="Fill-11" fill="#582FFF"></path>
                    <path d="M80.059851,160.520624 L79.347768,225.794905 L138.43654,186.418531 L139.932855,121.167802 L80.059851,160.520624 Z M77.8043988,230.157409 C77.5463863,230.157409 77.3017058,230.094606 77.0766311,229.970568 C76.5880544,229.706007 76.2845564,229.190232 76.2916145,228.625783 L77.0436934,159.681409 C77.0499672,159.176624 77.3040585,158.709521 77.7259755,158.433185 L140.681797,117.054157 C141.148415,116.746419 141.765606,116.725222 142.251046,116.999204 C142.740407,117.273185 143.036847,117.793671 143.023515,118.355764 L141.442502,187.277372 C141.431523,187.771166 141.179,188.230419 140.764926,188.5044 L78.6419589,229.903839 C78.3917888,230.070269 78.1024071,230.157409 77.8043988,230.157409 L77.8043988,230.157409 Z" id="Fill-13" fill="#582FFF"></path>
                    <path d="M15.2152058,186.922374 L77.420517,227.919869 L78.1616166,159.909701 L15.1226664,118.925551 L15.2152058,186.922374 Z M78.1882805,229.36514 L14.4317577,187.345514 L14.3360813,117.47871 L78.9505544,159.486561 L78.1882805,229.36514 Z" id="Fill-15" fill="#582FFF"></path>
                    <path d="M15.9990461,186.499234 L76.6515772,226.473813 L77.373071,160.332841 L15.9088593,120.373178 L15.9990461,186.499234 Z M78.9572203,230.811981 L13.6479174,187.769439 L13.5498884,116.031084 L79.7391,159.063421 L78.9572203,230.811981 Z" id="Fill-17" fill="#582FFF"></path>
                    <path d="M15.5510141,186.741421 L77.090512,227.300075 L77.8237693,160.090654 L15.4600432,119.546131 L15.5510141,186.741421 Z M77.8041635,229.371813 C77.660649,229.371813 77.5218398,229.330206 77.4034207,229.250916 L14.423288,187.74314 C14.2162506,187.606542 14.0946946,187.378879 14.0954788,187.133944 L14.0005867,118.203701 C13.9998025,117.935215 14.1456697,117.689495 14.3825079,117.560748 C14.6013087,117.439065 14.9071593,117.447701 15.1275286,117.59215 L78.9530639,159.085794 C79.1632382,159.223178 79.2871469,159.454766 79.2847942,159.705981 L78.5327154,228.65114 C78.5295784,228.917271 78.3813585,229.160636 78.1453046,229.286243 C78.0433544,229.341981 77.924151,229.371813 77.8041635,229.371813 L77.8041635,229.371813 Z" id="Fill-19" fill="#582FFF"></path>
                    <path d="M16.3348544,186.31828 L76.3223564,225.854019 L77.0344394,160.513794 L16.2462361,120.992972 L16.3348544,186.31828 Z M77.8037714,230.157645 C77.5049788,230.157645 77.2171656,230.06972 76.9693481,229.905645 L13.991568,188.399439 C13.5625929,188.114467 13.3100701,187.641869 13.3116386,187.131589 L13.2167465,118.204486 C13.215178,117.647888 13.5186759,117.136037 14.0088212,116.870692 C14.4824975,116.607701 15.0934145,116.631252 15.5576801,116.93585 L79.3800784,158.42871 C79.8161116,158.712112 80.0733398,159.192561 80.0694187,159.713047 L79.3165556,228.659776 C79.311066,229.213234 79.0036469,229.718804 78.5135017,229.979439 C78.3017589,230.094841 78.0547257,230.157645 77.8037714,230.157645 L77.8037714,230.157645 Z" id="Fill-21" fill="#582FFF"></path>
                    <path d="M2.82794191,201.474079 L79.5956639,252.834976 L155.270166,201.602041 L78.5173444,151.110976 L2.82794191,201.474079 Z M79.5980166,253.780957 L1.41397095,201.472508 L78.5149917,150.16892 L78.7314398,150.311798 L156.684137,201.592621 L79.5980166,253.780957 Z" id="Fill-23" fill="#582FFF"></path>
                    <path d="M4.24206971,201.476434 L79.593468,251.888994 L153.856352,201.612247 L78.5190697,152.052247 L4.24206971,201.476434 Z M79.6005261,254.726938 L0.000156846473,201.470938 L78.5127959,149.228434 L79.1621402,149.656284 L158.09748,201.58477 L79.6005261,254.726938 Z" id="Fill-25" fill="#582FFF"></path>
                    <path d="M3.4340751,201.474864 L79.5955855,252.429892 L154.663876,201.606751 L78.5180502,151.513705 L3.4340751,201.474864 Z M79.5971539,254.036882 C79.4967722,254.036882 79.3461996,254.016471 79.1948427,253.915985 L1.71660622,202.080135 C1.51349004,201.943536 1.39271826,201.716658 1.39271826,201.471723 C1.39271826,201.229144 1.51427427,201.00148 1.71817469,200.866452 L78.1126021,150.033892 C78.3463033,149.875312 78.6756809,149.872957 78.9172245,150.031536 L156.376639,200.98892 C156.58054,201.121593 156.703664,201.347686 156.705233,201.594191 C156.706801,201.837555 156.587598,202.064434 156.385266,202.201817 L80.0049548,253.91206 C79.8833988,253.993705 79.7430212,254.036882 79.5971539,254.036882 L79.5971539,254.036882 Z" id="Fill-27" fill="#582FFF"></path>
                    <path d="M4.8482029,201.477219 L79.5926054,251.48391 L153.250062,201.616957 L78.5205598,152.455761 L4.8482029,201.477219 Z M79.5965266,254.821929 C79.2985183,254.821929 79.0091365,254.735574 78.7613191,254.570714 L1.28072988,202.733293 C0.859597095,202.449107 0.608642739,201.978864 0.608642739,201.472508 C0.608642739,200.965368 0.86116556,200.49434 1.2838668,200.213293 L77.6782942,149.380733 C78.1707921,149.047873 78.8436635,149.043948 79.3479249,149.376022 L156.808124,200.333406 C157.230825,200.609742 157.486485,201.0792 157.489622,201.590265 C157.492759,202.09505 157.244941,202.567649 156.826161,202.85105 L80.4442817,254.562864 C80.1925432,254.733219 79.9000245,254.821929 79.5965266,254.821929 L79.5965266,254.821929 Z" id="Fill-29" fill="#582FFF"></path>
                    <path d="M79.9867606,253.517966 L79.0558768,333.825892 L153.618337,282.675387 L155.566371,202.349406 L79.9867606,253.517966 Z M78.2543913,335.326901 L79.2072336,253.097966 L79.377412,252.982564 L156.387462,200.845256 L154.392375,283.095387 L78.2543913,335.326901 Z" id="Fill-31" fill="#582FFF"></path>
                    <path d="M80.7659739,253.93883 L79.8578328,332.324176 L152.843986,282.253895 L154.744966,203.853634 L80.7659739,253.93883 Z M77.4518079,336.828774 L78.4281772,252.67883 L157.208239,199.342755 L155.166883,283.51625 L77.4518079,336.828774 Z" id="Fill-33" fill="#582FFF"></path>
                    <path d="M80.3213925,253.698135 L79.3991353,333.181761 L153.286372,282.495219 L155.214799,202.994321 L80.3213925,253.698135 Z M78.6548988,335.305312 C78.534127,335.305312 78.4188448,335.27705 78.3129734,335.220527 C78.0714299,335.090994 77.9239942,334.840564 77.9263469,334.568938 L78.8689942,253.299331 C78.8721311,253.060677 78.9913344,252.837723 79.188961,252.70348 L155.569272,200.994022 C155.788073,200.845649 156.090002,200.828378 156.326841,200.958695 C156.566816,201.089798 156.711115,201.341798 156.704841,201.614209 L154.73328,282.901873 C154.727007,283.137387 154.608588,283.35563 154.415666,283.486733 L79.0666207,335.178135 C78.942712,335.26135 78.8015502,335.305312 78.6548988,335.305312 L78.6548988,335.305312 Z" id="Fill-35" fill="#582FFF"></path>
                    <path d="M81.1006842,254.118213 L80.2011697,331.680045 L152.512099,282.073727 L154.393473,204.497764 L81.1006842,254.118213 Z M78.6546635,336.090437 C78.4029249,336.090437 78.1629498,336.030774 77.9425805,335.911447 C77.4438087,335.645316 77.1379581,335.127185 77.1426635,334.561951 L78.0853108,253.289989 C78.0908004,252.794624 78.3394021,252.333017 78.7487714,252.054325 L155.129867,200.344082 C155.594132,200.029279 156.212892,200.000232 156.704605,200.271858 C157.201024,200.542699 157.50217,201.064755 157.488838,201.633914 L155.517278,282.920793 C155.50473,283.410662 155.257697,283.864419 154.85617,284.136045 L79.510261,335.825877 C79.2522485,336.000157 78.9581614,336.090437 78.6546635,336.090437 L78.6546635,336.090437 Z" id="Fill-37" fill="#582FFF"></path>
                    <path d="M2.63258963,282.55551 L78.271017,333.841828 L79.2026851,253.516632 L2.51417054,202.208333 L2.63258963,282.55551 Z M79.0387805,335.31065 L1.84914149,282.97237 L1.72758548,200.73794 L79.9916228,253.099772 L79.9892701,253.31252 L79.0387805,335.31065 Z" id="Fill-39" fill="#582FFF"></path>
                    <path d="M3.41611618,282.138415 L77.5041162,332.373555 L78.4130415,253.932471 L3.30083402,203.679275 L3.41611618,282.138415 Z M79.8058382,336.779237 L1.06577178,283.389779 L0.941078838,199.267312 L80.7798548,252.682677 L80.7735809,253.32092 L79.8058382,336.779237 Z" id="Fill-41" fill="#582FFF"></path>
                    <path d="M2.96847635,282.376834 L77.9426589,333.21332 L78.8649162,253.695151 L2.85162573,202.839039 L2.96847635,282.376834 Z M78.6547419,335.305469 C78.5080905,335.305469 78.3677129,335.261507 78.2469411,335.179862 L1.83290788,283.367563 C1.6321444,283.230964 1.51294108,283.006441 1.51294108,282.765432 L1.39295353,201.474628 C1.39216929,201.204572 1.53960498,200.956497 1.77879585,200.830105 C1.99759668,200.709207 2.30423154,200.719413 2.52616929,200.867787 L80.0020531,252.702067 C80.2067378,252.83788 80.3282938,253.067899 80.3259411,253.315974 L79.3825095,334.584796 C79.3801568,334.853282 79.2303685,335.097432 78.9919618,335.222254 C78.8900116,335.276422 78.773161,335.305469 78.6547419,335.305469 L78.6547419,335.305469 Z" id="Fill-43" fill="#582FFF"></path>
                    <path d="M3.75192448,281.959817 L77.1748954,331.745125 L78.0751942,254.111854 L3.63742656,204.309275 L3.75192448,281.959817 Z M78.6547419,336.090359 C78.351244,336.090359 78.0579411,336.000079 77.8062025,335.828938 L1.39295353,284.017424 C0.976526141,283.734807 0.728708714,283.266135 0.728708714,282.765275 L0.608721162,201.476041 C0.607152697,200.913163 0.915356017,200.398957 1.41334357,200.135966 C1.8744722,199.880826 2.50264232,199.909088 2.96141826,200.215256 L80.4380863,252.049536 C80.862356,252.332153 81.1140946,252.808677 81.1101734,253.323667 L80.1667419,334.59406 C80.1612523,335.151443 79.8506963,335.658583 79.3558456,335.917649 C79.140966,336.030695 78.8986382,336.090359 78.6547419,336.090359 L78.6547419,336.090359 Z" id="Fill-45" fill="#582FFF"></path>
                    <path d="M65.009334,159.310082 L80.0791432,169.151428 L94.9223091,159.343054 L79.8556369,149.672064 L65.009334,159.310082 Z M80.0814959,170.089559 L63.5710519,159.308512 L79.8532842,148.737858 L96.3605913,159.333634 L80.0814959,170.089559 Z" id="Fill-47" fill="#582FFF"></path>
                    <path d="M66.4476162,159.312359 L80.0767905,168.212434 L93.484027,159.353181 L79.8579896,150.606191 L66.4476162,159.312359 Z M80.0846328,171.029181 L62.1327697,159.306864 L79.8509315,147.804359 L97.7980892,159.32492 L80.0846328,171.029181 Z" id="Fill-49" fill="#582FFF"></path>
                    <path d="M65.6258191,159.311574 L80.0784373,168.748621 L94.3051967,159.346901 L79.8564996,150.072359 L65.6258191,159.311574 Z M80.0847112,170.350116 C79.9106116,170.358751 79.8008191,170.309293 79.6816158,170.231574 L63.8926656,159.919985 C63.6856282,159.785742 63.5617195,159.557293 63.5617195,159.309219 C63.5617195,159.061144 63.6864124,158.832695 63.8950183,158.697667 L79.4581095,148.593331 C79.6949477,148.439462 80.0125618,148.440247 80.2478315,148.591761 L96.034429,158.724359 C96.2430349,158.859387 96.3677278,159.08705 96.3692963,159.33277 C96.3708647,159.579275 96.2493087,159.808508 96.0438398,159.945892 L80.4815328,170.229219 C80.3584083,170.309293 80.2227361,170.350116 80.0847112,170.350116 L80.0847112,170.350116 Z" id="Fill-51" fill="#582FFF"></path>
                    <path d="M67.0641012,159.31385 L80.0760846,167.810411 L92.8676988,159.357028 L79.8588523,151.007271 L67.0641012,159.31385 Z M80.0431469,171.136654 C79.6816158,171.136654 79.4330141,171.006336 79.2542091,170.890935 L63.4644747,160.577776 C63.0347154,160.299869 62.7774871,159.824916 62.7774871,159.309925 C62.7774871,158.793364 63.0362838,158.317626 63.4699643,158.03815 L79.0314871,147.934598 C79.5302589,147.612729 80.1733295,147.611159 80.671317,147.931458 L96.4571303,158.063271 C96.8908108,158.344318 97.1503917,158.816131 97.1535286,159.328766 C97.1566656,159.840617 96.9041427,160.314785 96.4783046,160.599757 L80.9136448,170.884654 C80.6650432,171.045589 80.3882091,171.131159 80.1058855,171.135084 C80.0847112,171.136654 80.0635369,171.136654 80.0431469,171.136654 L80.0431469,171.136654 Z" id="Fill-53" fill="#582FFF"></path>
                    <path d="M80.4703967,169.833791 L80.2853178,185.842464 L94.8430232,176.083548 L95.2312183,160.079585 L80.4703967,169.833791 Z M79.4838324,187.324632 L79.6908697,169.40751 L79.8649693,169.293679 L96.0515253,158.597417 L95.6170606,176.509828 L79.4838324,187.324632 Z" id="Fill-55" fill="#582FFF"></path>
                    <path d="M81.24961,170.259286 L81.0864896,184.36108 L94.0686722,175.658052 L94.4105975,161.562538 L81.24961,170.259286 Z M78.6828174,188.807585 L78.9118133,168.980445 L79.434112,168.637379 L96.8715187,157.114464 L96.3915685,176.936108 L78.6828174,188.807585 Z" id="Fill-57" fill="#582FFF"></path>
                    <path d="M80.8046365,170.017021 L80.6281842,185.207675 L94.5114498,175.900161 L94.8792548,160.715002 L80.8046365,170.017021 Z M79.884732,187.312385 C79.7663129,187.312385 79.6471095,187.282553 79.5396697,187.22603 C79.2989104,187.095712 79.1530432,186.846067 79.1561801,186.574441 L79.3522382,169.612721 C79.3553751,169.370142 79.4784996,169.146404 79.6800473,169.012946 L95.2400017,158.729619 C95.4682133,158.58046 95.7615162,158.572609 95.9928647,158.699787 C96.2312714,158.831675 96.3747859,159.082105 96.3692963,159.354516 L95.9575743,176.31388 C95.9520846,176.550179 95.8313129,176.770778 95.6352548,176.90188 L80.2901801,187.189133 C80.1686241,187.270778 80.0290307,187.312385 79.884732,187.312385 L79.884732,187.312385 Z" id="Fill-59" fill="#582FFF"></path>
                    <path d="M81.5839282,170.443301 L81.4302187,183.725507 L93.7371772,175.474665 L94.0587124,162.19874 L81.5839282,170.443301 Z M79.8844967,188.097432 C79.6398162,188.097432 79.3935672,188.036198 79.1739822,187.921581 C78.6697207,187.648385 78.3654386,187.130254 78.3724967,186.564236 L78.5677705,169.604871 C78.5756129,169.100086 78.8289199,168.634553 79.2477,168.358217 L94.8084386,158.07489 C95.2805465,157.765581 95.8789158,157.741245 96.3698452,158.012086 C96.8662643,158.286067 97.1650568,158.807338 97.1532934,159.371002 L96.7415714,176.332721 C96.7298079,176.824946 96.4788535,177.281843 96.0710527,177.555039 L80.7267622,187.841507 C80.4765921,188.009507 80.1856419,188.097432 79.8844967,188.097432 L79.8844967,188.097432 Z" id="Fill-61" fill="#582FFF"></path>
                    <path d="M64.7072477,176.058976 L79.5010071,185.857929 L79.6860859,169.8312 L64.6837207,160.034602 L64.7072477,176.058976 Z M80.2679863,187.308695 L63.9237996,176.480546 L63.8971357,158.583836 L80.4750237,169.40963 L80.2679863,187.308695 Z" id="Fill-63" fill="#582FFF"></path>
                    <path d="M65.4906959,175.636542 L78.7332436,184.408654 L78.8971481,170.254262 L65.4703058,161.486075 L65.4906959,175.636542 Z M81.0357498,188.758598 L63.1403515,176.902822 L63.1105506,157.133776 L81.2639614,168.987981 L81.0357498,188.758598 Z" id="Fill-65" fill="#582FFF"></path>
                    <path d="M65.043056,175.878101 L79.1725705,185.237428 L79.3482386,170.013017 L65.0203133,160.65683 L65.043056,175.878101 Z M79.8846535,187.312307 C79.7419232,187.312307 79.6031141,187.271484 79.484695,187.192979 L63.9137614,176.877465 C63.7090768,176.743222 63.5875207,176.515559 63.5875207,176.269839 L63.5616411,159.310475 C63.5608568,159.043559 63.7067241,158.797054 63.9435622,158.669092 C64.1694212,158.545054 64.465861,158.554475 64.6870145,158.698138 L80.4783174,169.010512 C80.6884917,169.14868 80.8124004,169.379484 80.8092635,169.629914 L80.6132054,186.591634 C80.6100685,186.85855 80.4610643,187.103484 80.2242261,187.228307 C80.1199232,187.284045 80.0046411,187.312307 79.8846535,187.312307 L79.8846535,187.312307 Z" id="Fill-67" fill="#582FFF"></path>
                    <path d="M65.8265041,175.455667 L78.4048071,183.787368 L78.5585166,170.435293 L65.8068983,162.108303 L65.8265041,175.455667 Z M79.8846535,188.09806 C79.5874295,188.09806 79.3004004,188.011705 79.0533672,187.8492 L63.4808651,177.532901 C63.0565954,177.252639 62.8032884,176.780041 62.8032884,176.269761 L62.7774087,159.312751 C62.7758402,158.756938 63.0801224,158.244303 63.5702676,157.978957 C64.0462967,157.716751 64.6540768,157.741873 65.1144212,158.040191 L80.9065083,168.35335 C81.34411,168.639892 81.5997697,169.12191 81.5927116,169.641611 L81.3966535,186.600976 C81.3911639,187.156004 81.0821763,187.663929 80.5896784,187.922994 C80.3747988,188.038396 80.1356079,188.09806 79.8846535,188.09806 L79.8846535,188.09806 Z" id="Fill-69" fill="#582FFF"></path>
                    <path d="M36.3734029,314.486344 L80.3994237,344.82526 L123.780021,314.552288 L79.7618427,284.740138 L36.3734029,314.486344 Z M80.4025606,345.779877 L80.1782701,345.626007 L34.9876643,314.484774 L79.7587058,283.791017 L79.9798593,283.940961 L125.16576,314.542867 L80.4025606,345.779877 Z" id="Fill-71" fill="#582FFF"></path>
                    <path d="M37.7588278,314.487914 L80.3967573,343.869858 L122.394753,314.562493 L79.764666,285.690045 L37.7588278,314.487914 Z M80.4053838,346.734493 L79.7340809,346.272886 L33.6023963,314.483204 L79.7552552,282.841895 L80.4187158,283.290157 L126.5504,314.533447 L80.4053838,346.734493 Z" id="Fill-73" fill="#582FFF"></path>
                    <path d="M36.9673021,314.487129 L80.3980905,344.415465 L123.186593,314.556213 L79.7636465,285.147578 L36.9673021,314.487129 Z M80.4012274,346.031877 C80.2530075,346.031877 80.1102772,345.987129 79.9879369,345.903129 L35.2678705,315.08612 C35.070244,314.949521 34.9526091,314.724998 34.9526091,314.484774 C34.9526091,314.24455 35.0710282,314.020026 35.2686548,313.884213 L79.3487876,283.664624 C79.5918996,283.498979 79.9228456,283.495839 80.1683104,283.661484 L124.881319,313.943877 C125.079729,314.07812 125.199717,314.301858 125.201285,314.541297 C125.202854,314.783092 125.086003,315.0084 124.888377,315.145783 L80.818439,345.899989 C80.696883,345.985559 80.5518,346.031877 80.4012274,346.031877 L80.4012274,346.031877 Z" id="Fill-75" fill="#582FFF"></path>
                    <path d="M38.352727,314.488621 L80.3954241,343.459985 L121.802109,314.56634 L79.7664697,286.097406 L38.352727,314.488621 Z M80.4009137,346.816845 C80.0927104,346.816845 79.7954863,346.724209 79.5421793,346.548359 L34.8236813,315.732135 C34.4127436,315.449518 34.1680631,314.9832 34.1680631,314.484695 C34.1680631,313.984621 34.414312,313.518303 34.826034,313.236471 L78.9061668,283.016882 C79.4151336,282.669107 80.0974158,282.667536 80.6063826,283.010602 L125.320959,313.293779 C125.733466,313.571686 125.982067,314.037219 125.985204,314.536508 C125.988341,315.036583 125.746013,315.506041 125.335076,315.790228 L81.2667062,346.543649 C81.0157519,346.721854 80.7153909,346.816845 80.4009137,346.816845 L80.4009137,346.816845 Z" id="Fill-77" fill="#582FFF"></path>
                    <path d="M80.7905203,345.508721 L80.2470473,389.974553 L122.91713,359.810703 L124.060541,315.313469 L80.7905203,345.508721 Z M79.4439934,391.503039 L80.0117776,345.096572 L80.1764664,344.980385 L124.884769,313.781843 L123.690383,360.224422 L79.4439934,391.503039 Z" id="Fill-79" fill="#582FFF"></path>
                    <path d="M81.5697336,345.92197 L81.0497876,388.445596 L122.142779,359.396512 L123.236783,316.845409 L81.5697336,345.92197 Z M78.64141,393.031839 L79.2327212,344.684736 L79.7267876,344.336961 L125.708684,312.249746 L124.464107,360.638456 L124.142572,360.865335 L78.64141,393.031839 Z" id="Fill-81" fill="#582FFF"></path>
                    <path d="M81.1247602,345.686613 L80.5914822,389.31951 L122.584773,359.632968 L123.707793,315.969454 L81.1247602,345.686613 Z M79.8448929,391.467398 C79.7288266,391.467398 79.6119759,391.438351 79.507673,391.384183 C79.2622083,391.25465 79.1132041,391.004221 79.1171253,390.728669 L79.6731461,345.29409 C79.676283,345.059361 79.7923494,344.839548 79.9844863,344.70452 L124.055993,313.949529 C124.284988,313.79409 124.586918,313.780744 124.818266,313.905566 C125.061378,314.037454 125.207246,314.289454 125.200972,314.564221 L124.031681,360.034912 C124.025407,360.265716 123.909341,360.483174 123.720341,360.614277 L80.2652415,391.33394 C80.1397643,391.421865 79.9954656,391.467398 79.8448929,391.467398 L79.8448929,391.467398 Z" id="Fill-83" fill="#582FFF"></path>
                    <path d="M81.9040519,346.099783 L81.3943008,387.790475 L121.811284,359.218699 L122.884114,317.501316 L81.9040519,346.099783 Z M79.8454419,392.25268 C79.6038983,392.25268 79.3623548,392.193017 79.1459066,392.07997 C78.6345871,391.811484 78.3240311,391.289428 78.3326577,390.716344 L78.8894627,345.28412 C78.8949523,344.798176 79.1364959,344.340493 79.5348859,344.061017 L123.607961,313.306026 C124.080068,312.982587 124.698044,312.94883 125.188973,313.213391 C125.694803,313.488157 125.999085,314.012568 125.984969,314.583297 L124.815678,360.054774 C124.803131,360.536793 124.560803,360.985839 124.167902,361.259036 L80.7175083,391.974774 C80.4587116,392.156905 80.1575664,392.25268 79.8454419,392.25268 L79.8454419,392.25268 Z" id="Fill-85" fill="#582FFF"></path>
                    <path d="M36.1451129,359.753002 L79.4621876,389.993002 L80.0064448,345.507544 L36.0737477,315.233002 L36.1451129,359.753002 Z M80.2283826,391.484591 L35.3616647,360.162011 L35.2871627,313.738273 L80.7961668,345.09775 L80.2283826,391.484591 Z" id="Fill-87" fill="#582FFF"></path>
                    <path d="M36.9286394,359.342893 L78.696071,388.501099 L79.2168012,345.916239 L36.8604112,316.728202 L36.9286394,359.342893 Z M80.9938718,392.97665 L34.578295,360.572277 L34.500656,312.24323 L81.585183,344.688426 L80.9938718,392.97665 Z" id="Fill-89" fill="#582FFF"></path>
                    <path d="M36.4809996,359.57825 L79.1338295,389.353503 L79.6678917,345.682923 L36.4112029,315.873129 L36.4809996,359.57825 Z M79.8451282,391.467634 C79.6984768,391.467634 79.5502568,391.422101 79.4294851,391.338101 L35.3368046,360.556419 C35.1423149,360.419036 35.0262485,360.196082 35.0254643,359.958998 L34.9525307,314.486736 C34.9517465,314.21668 35.0999664,313.969391 35.3391573,313.841428 C35.5838378,313.71425 35.8771407,313.734662 36.094373,313.885391 L80.8144394,344.701615 C81.0144187,344.840568 81.1320535,345.068232 81.1297008,345.310811 L80.5736801,390.746961 C80.5697589,391.018587 80.4184021,391.263521 80.1776427,391.387559 C80.0756925,391.439372 79.9604104,391.467634 79.8451282,391.467634 L79.8451282,391.467634 Z" id="Fill-91" fill="#582FFF"></path>
                    <path d="M37.2644477,359.168064 L78.3676344,387.861521 L78.8789539,346.092325 L37.197788,317.36825 L37.2644477,359.168064 Z M79.8451282,392.253073 C79.5408461,392.253073 79.2357797,392.157297 78.9848253,391.985372 L34.8882237,361.20055 C34.4835598,360.915578 34.2428004,360.453185 34.241232,359.961746 L34.1682983,314.487914 C34.1667299,313.927391 34.4733647,313.414755 34.9697838,313.149409 C35.4803191,312.884849 36.0786884,312.920176 36.5406012,313.23969 L81.2590992,344.055129 C81.6739581,344.342456 81.9186386,344.815054 81.9139332,345.318269 L81.3579124,390.756774 C81.3500701,391.319652 81.0355929,391.829148 80.5352527,392.085858 C80.3219415,392.194979 80.0835349,392.253073 79.8451282,392.253073 L79.8451282,392.253073 Z" id="Fill-93" fill="#582FFF"></path>
                    <path d="M140.438842,37.6335701 L151.614153,44.5333458 L162.269518,37.6720374 L151.099697,30.8923738 L140.438842,37.6335701 Z M151.62278,45.461271 L138.957427,37.6414206 L151.09107,29.9691589 L163.750149,37.6516262 L151.62278,45.461271 Z" id="Fill-95" fill="#582FFF"></path>
                    <path d="M141.920022,37.6254841 L151.605291,43.6059701 L160.790221,37.691428 L151.108088,31.8153533 L141.920022,37.6254841 Z M151.631171,46.3889607 L137.476561,37.6490355 L151.082993,29.0464935 L165.230544,37.6325495 L151.631171,46.3889607 Z" id="Fill-97" fill="#582FFF"></path>
                    <path d="M141.073756,37.6305084 L151.610702,44.1354056 L161.635545,37.6799664 L151.103304,31.2881159 L141.073756,37.6305084 Z M151.618545,45.7259103 C151.482873,45.7259103 151.350337,45.688228 151.235839,45.6175738 L139.315507,38.2585458 C139.099059,38.1243028 138.970445,37.8934991 138.970445,37.640714 C138.968877,37.3926393 139.098275,37.1547701 139.309234,37.0213121 L150.706483,29.8145832 C150.930773,29.6709196 151.238192,29.6654243 151.472678,29.8067327 L163.388304,37.0377981 C163.603968,37.169686 163.734935,37.3989196 163.738856,37.6517047 C163.741209,37.9060598 163.616516,38.1376486 163.404773,38.2742467 L152.012229,45.6105084 C151.89381,45.6858729 151.758138,45.7259103 151.618545,45.7259103 L151.618545,45.7259103 Z" id="Fill-99" fill="#582FFF"></path>
                    <path d="M142.554936,37.6224224 L151.601841,43.2080299 L160.155463,37.7001421 L151.111695,32.2110953 L142.554936,37.6224224 Z M151.61831,46.5107215 C151.338339,46.5107215 151.064641,46.4330019 150.825451,46.2869832 L138.904334,38.926385 C138.454185,38.6476935 138.185978,38.1672449 138.185978,37.6404785 C138.182841,37.127843 138.452617,36.6348336 138.890218,36.3577121 L150.287467,29.1509832 C150.763496,28.8456 151.389314,28.8393196 151.878675,29.1344972 L163.794301,36.3663477 C164.243666,36.640329 164.515795,37.1168523 164.522853,37.6412636 C164.527559,38.168815 164.268762,38.6508336 163.829592,38.9342355 L152.437048,46.2704972 C152.188446,46.4282916 151.906907,46.5107215 151.61831,46.5107215 L151.61831,46.5107215 Z" id="Fill-101" fill="#582FFF"></path>
                    <path d="M152.003603,45.2157084 L151.602076,57.3674467 L162.037856,50.5422505 L162.584466,38.4022879 L152.003603,45.2157084 Z M150.767653,58.849615 L151.233487,44.7784374 L163.436142,36.9216897 L162.803267,50.9795215 L150.767653,58.849615 Z" id="Fill-103" fill="#582FFF"></path>
                    <path d="M152.773641,45.6530579 L152.435637,55.8837869 L161.272367,50.1050579 L161.732711,39.8845346 L152.773641,45.6530579 Z M149.933935,60.3326467 L150.463292,44.3412449 L164.28774,35.4396 L163.568599,51.416871 L149.933935,60.3326467 Z" id="Fill-105" fill="#582FFF"></path>
                    <path d="M152.333686,45.402785 L151.959607,56.7310093 L161.710753,50.3556449 L162.21972,39.0376262 L152.333686,45.402785 Z M151.18557,58.8365047 C151.060877,58.8365047 150.937753,58.8043178 150.829529,58.7438692 C150.590338,58.6088411 150.448392,58.3568411 150.457018,58.0836449 L150.890699,44.9725794 C150.898541,44.7339252 151.023234,44.5141121 151.223213,44.3845794 L162.616541,37.0475327 C162.8424,36.9022991 163.144329,36.8952336 163.37411,37.0302617 C163.609379,37.1652897 163.749757,37.4204299 163.737993,37.6944112 L163.148251,50.7937009 C163.138056,51.0268598 163.014931,51.2427477 162.818873,51.3722804 L151.583176,58.7187477 C151.465541,58.7964673 151.327516,58.8365047 151.18557,58.8365047 L151.18557,58.8365047 Z" id="Fill-107" fill="#582FFF"></path>
                    <path d="M153.103724,45.8401346 L152.793168,55.2481346 L160.945263,49.9176673 L161.367965,40.5190879 L153.103724,45.8401346 Z M151.185492,59.6216299 C150.928263,59.6216299 150.673388,59.555686 150.447529,59.4300785 C149.949541,59.1482467 149.65467,58.6230505 149.673492,58.0578168 L150.107172,44.9467514 C150.123641,44.4506019 150.381654,43.9944897 150.797297,43.7260037 L162.192193,36.3873869 C162.665869,36.0812187 163.286197,36.0678729 163.770853,36.3536299 C164.255508,36.6307514 164.54489,37.1590879 164.521363,37.7274617 L163.93162,50.8291065 C163.910446,51.3119103 163.655571,51.760957 163.249338,52.0278729 L152.012073,59.3759103 C151.766608,59.5368449 151.480363,59.6216299 151.185492,59.6216299 L151.185492,59.6216299 Z" id="Fill-109" fill="#582FFF"></path>
                    <path d="M139.833101,50.5239589 L150.815491,57.413529 L151.219371,45.2115477 L140.076997,38.3321832 L139.833101,50.5239589 Z M151.554238,58.8030617 L139.040242,50.9533794 L139.320213,36.9426505 L152.017719,44.7829121 L151.554238,58.8030617 Z" id="Fill-111" fill="#582FFF"></path>
                    <path d="M140.626117,50.0950093 L150.076901,56.0236822 L150.420395,45.6406542 L140.833154,39.7214019 L140.626117,50.0950093 Z M152.293141,60.1930654 L138.24754,51.382486 L138.563585,35.5535888 L152.816224,44.3531776 L152.293141,60.1930654 Z" id="Fill-113" fill="#582FFF"></path>
                    <path d="M140.173144,50.340729 L150.499132,56.8181495 L150.876347,45.3949346 L140.401356,38.9285047 L140.173144,50.340729 Z M151.185335,58.8365047 C151.048878,58.8365047 150.916343,58.7980374 150.800277,58.7273832 L139.050123,51.3573645 C138.833675,51.2207664 138.703493,50.9781869 138.708198,50.7246168 L138.970132,37.623757 C138.975621,37.3631215 139.121488,37.1228972 139.350484,36.9972897 C139.570854,36.8756075 139.860235,36.8818879 140.080605,37.0169159 L152.000937,44.3759439 C152.222874,44.5141121 152.354625,44.7614019 152.345999,45.0204673 L151.913102,58.1323178 C151.904476,58.3921682 151.75704,58.6292523 151.528044,58.7509346 C151.422173,58.8066729 151.303754,58.8365047 151.185335,58.8365047 L151.185335,58.8365047 Z" id="Fill-115" fill="#582FFF"></path>
                    <path d="M140.96616,49.9117794 L149.760541,55.4283028 L150.078156,45.8240411 L141.157512,40.3177234 L140.96616,49.9117794 Z M151.185492,59.6220224 C150.904737,59.6220224 150.629471,59.5435178 150.389496,59.395929 L138.633853,52.021985 C138.185272,51.7393682 137.913927,51.2361533 137.924122,50.7093869 L138.186056,37.6077421 C138.196251,37.0676299 138.498965,36.5691252 138.973425,36.3084897 C139.436907,36.0525645 140.032923,36.0674804 140.490131,36.3477421 L152.412815,43.7083402 C152.873944,43.9948822 153.147641,44.5067327 153.130388,45.0460598 L152.696707,58.1579103 C152.680239,58.6972374 152.37282,59.1902467 151.896006,59.4446019 C151.676421,59.5607888 151.430956,59.6220224 151.185492,59.6220224 L151.185492,59.6220224 Z" id="Fill-117" fill="#582FFF"></path>
                    <path d="M232.019459,307.591121 L298.716068,351.605551 L358.619658,307.715159 L291.991276,264.486561 L232.019459,307.591121 Z M298.739595,352.560953 L230.636073,307.618598 L291.968533,263.535869 L292.192824,263.681103 L360.000691,307.675121 L298.739595,352.560953 Z" id="Fill-119" fill="#582FFF"></path>
                    <path d="M233.402531,307.563488 L298.692228,350.649993 L357.238311,307.754254 L292.013705,265.437095 L233.402531,307.563488 Z M298.762809,353.516983 L298.307954,353.21631 L229.253157,307.645918 L291.945477,262.586591 L292.619132,263.023077 L361.382195,307.636497 L298.762809,353.516983 Z" id="Fill-121" fill="#582FFF"></path>
                    <path d="M232.611789,307.57966 L298.706109,351.196856 L358.027798,307.731959 L292.000922,264.894314 L232.611789,307.57966 Z M298.727283,352.813267 L298.722578,352.813267 C298.581416,352.811697 298.444175,352.769305 298.327324,352.69237 L230.927258,308.213978 C230.728063,308.084445 230.604939,307.860707 230.600233,307.619697 C230.594744,307.380258 230.708457,307.153379 230.902947,307.012856 L291.555478,263.419211 C291.789179,263.248856 292.127968,263.239436 292.375785,263.399585 L359.706055,307.082725 C359.908387,307.214613 360.032295,307.436781 360.038569,307.677006 C360.045627,307.914875 359.934266,308.140968 359.741345,308.283062 L299.157827,352.671959 C299.031565,352.765379 298.882561,352.813267 298.727283,352.813267 L298.727283,352.813267 Z" id="Fill-123" fill="#582FFF"></path>
                    <path d="M233.99494,307.552026 L298.682346,350.240512 L356.646529,307.771054 L292.023429,265.844849 L233.99494,307.552026 Z M298.727048,353.598157 L298.723127,353.598157 C298.421981,353.595017 298.138873,353.508662 297.894977,353.347727 L230.495695,308.869335 C230.08162,308.600064 229.825961,308.137671 229.815766,307.635241 C229.805571,307.138307 230.04084,306.666493 230.445504,306.376026 L291.098035,262.781596 C291.595239,262.42126 292.280658,262.402419 292.800604,262.739989 L360.133226,306.423914 C360.551222,306.69711 360.80845,307.157148 360.822566,307.654867 C360.836683,308.150232 360.605334,308.62126 360.205376,308.914867 L299.621857,353.305335 C299.359923,353.496886 299.050936,353.598157 298.727048,353.598157 L298.727048,353.598157 Z" id="Fill-125" fill="#582FFF"></path>
                    <path d="M299.103479,352.294351 L293.674239,416.669753 L352.595969,372.953641 L358.835322,308.529566 L299.103479,352.294351 Z M292.747276,418.334837 L298.352185,351.872781 L298.496483,351.7668 L359.785027,306.861342 L353.343342,373.376781 L353.202965,373.480407 L292.747276,418.334837 Z" id="Fill-127" fill="#582FFF"></path>
                    <path d="M299.854774,352.716707 L294.601985,415.004669 L351.84938,372.530501 L357.885616,310.197791 L299.854774,352.716707 Z M291.819529,419.999921 L297.60089,351.451211 L298.032218,351.134052 L360.734732,305.193118 L354.089932,373.799921 L353.669583,374.111585 L291.819529,419.999921 Z" id="Fill-129" fill="#582FFF"></path>
                    <path d="M299.425877,352.476011 L294.072707,415.955675 L352.276865,372.772609 L358.428383,309.244273 L299.425877,352.476011 Z M293.210836,418.231525 C293.086927,418.231525 292.966155,418.200908 292.861068,418.14203 C292.610114,418.002292 292.462678,417.727525 292.485421,417.441768 L298.002495,352.022254 C298.020533,351.811862 298.127973,351.62031 298.297367,351.496273 L358.880885,307.106591 C359.225948,306.854591 359.465923,306.944871 359.669823,307.060273 C359.918425,307.203151 360.061939,307.479488 360.03606,307.763675 L353.694757,373.235002 C353.674367,373.440684 353.568495,373.629095 353.403022,373.752348 L293.6453,418.088647 C293.518255,418.181282 293.365329,418.231525 293.210836,418.231525 L293.210836,418.231525 Z" id="Fill-131" fill="#582FFF"></path>
                    <path d="M300.177172,352.898445 L294.99967,414.290669 L351.529491,372.349548 L357.478678,310.912576 L300.177172,352.898445 Z M293.210836,419.01665 C292.952039,419.01665 292.698732,418.950707 292.477578,418.825884 C291.960769,418.539342 291.655703,417.970968 291.703541,417.379043 L297.220616,351.956389 C297.258259,351.519903 297.480981,351.121884 297.832317,350.863604 L358.417404,306.473136 C358.942056,306.090034 359.493371,306.059417 360.05645,306.377361 C360.574043,306.674108 360.871267,307.246407 360.816371,307.836763 L354.475068,373.31123 C354.433504,373.738295 354.21235,374.129249 353.868856,374.383604 L294.111919,418.719903 C293.849201,418.912239 293.530018,419.01665 293.210836,419.01665 L293.210836,419.01665 Z" id="Fill-133" fill="#582FFF"></path>
                    <path d="M227.237053,372.882594 L292.875733,416.805959 L298.317522,352.282968 L231.672671,308.302295 L227.237053,372.882594 Z M293.545468,418.198632 L226.423804,373.282968 L226.438704,373.05609 L230.982546,306.907267 L299.138613,351.884164 L299.118223,352.116538 L293.545468,418.198632 Z" id="Fill-135" fill="#582FFF"></path>
                    <path d="M228.050772,372.482456 L292.206469,415.414307 L297.496901,352.681222 L232.363266,309.698344 L228.050772,372.482456 Z M294.214888,419.590755 L225.611025,373.682793 L225.656511,373.002942 L230.292893,305.510905 L299.95939,351.485596 L299.899789,352.184288 L294.214888,419.590755 Z" id="Fill-137" fill="#582FFF"></path>
                    <path d="M227.586271,372.710905 L292.589724,416.210344 L297.965637,352.453559 L231.968562,308.900736 L227.586271,372.710905 Z M293.210836,418.231054 C293.068105,418.231054 292.928512,418.189447 292.80774,418.110157 L226.426392,373.689073 C226.209159,373.544624 226.085251,373.292624 226.104856,373.031204 L230.600861,307.555166 C230.618114,307.299241 230.772607,307.067652 231.003956,306.951465 C231.232168,306.839204 231.516844,306.85569 231.729371,306.996998 L299.129437,351.475391 C299.350591,351.622194 299.4745,351.877335 299.453325,352.14268 L293.936251,417.56455 C293.915076,417.820475 293.757446,418.048923 293.526881,418.1604 C293.431205,418.206718 293.323765,418.231054 293.210836,418.231054 L293.210836,418.231054 Z" id="Fill-139" fill="#582FFF"></path>
                    <path d="M228.399991,372.310688 L291.919676,414.817828 L297.145016,352.85252 L232.659157,310.296707 L228.399991,372.310688 Z M293.210522,419.016258 C292.915651,419.016258 292.627053,418.930688 292.378451,418.767398 L225.990045,374.341604 C225.539111,374.040931 225.282667,373.51652 225.322663,372.974052 L229.818667,307.501155 C229.854742,306.968893 230.174709,306.488445 230.65309,306.249791 C231.13853,306.010351 231.714941,306.047249 232.161954,306.342426 L299.560451,350.820034 C300.02158,351.124632 300.279593,351.654538 300.234891,352.206426 L294.717817,417.63065 C294.673115,418.162127 294.346875,418.63708 293.86614,418.867884 C293.670082,418.964445 293.441086,419.016258 293.210522,419.016258 L293.210522,419.016258 Z" id="Fill-141" fill="#582FFF"></path>
                    <path d="M231.827557,96.5304449 L307.146802,143.027978 L374.573532,96.6992299 L299.335847,51.0369869 L231.827557,96.5304449 Z M307.169544,143.965323 L230.379864,96.5594916 L299.313105,50.1051364 L299.527984,50.2354542 L376.018872,96.6576224 L307.169544,143.965323 Z" id="Fill-143" fill="#582FFF"></path>
                    <g id="Group-147" transform="translate(228.211618, 48.672897)">
                        <mask id="mask-2" fill="white">
                            <use xlink:href="#path-1"></use>
                        </mask>
                        <g id="Clip-146"></g>
                        <path d="M5.06308257,47.828815 L78.9118917,93.4188336 L144.916809,48.0674692 L71.1464228,3.29546916 L5.06308257,47.828815 Z M78.9809041,96.2285159 L0.721572199,47.9151701 L71.0797631,0.500702804 L149.252045,47.9434318 L78.9809041,96.2285159 Z" id="Fill-145" fill="#582FFF" mask="url(#mask-2)"></path>
                    </g>
                    <path d="M232.448277,96.5181981 L307.136215,142.627133 L373.95438,96.7160299 L299.344866,51.4353196 L232.448277,96.5181981 Z M307.157389,144.226273 C307.020932,144.226273 306.889181,144.188591 306.773899,144.117151 L230.721397,97.1658617 C230.509654,97.0347589 230.380256,96.8070953 230.375551,96.5590206 C230.370845,96.3093757 230.491617,96.0777869 230.700223,95.9396187 L298.917459,49.9664972 C299.148808,49.8110579 299.464854,49.8039925 299.701692,49.9492262 L375.673418,96.0542355 C375.886729,96.1829832 376.017696,96.4090766 376.024754,96.6579364 C376.031812,96.9060112 375.913393,97.138385 375.708708,97.2796935 L307.569895,144.09831 C307.443634,144.183095 307.302472,144.226273 307.157389,144.226273 L307.157389,144.226273 Z" id="Fill-148" fill="#582FFF"></path>
                    <path d="M233.895421,96.4894654 L307.113707,141.690886 L372.509276,96.7571664 L299.36706,52.3666991 L233.895421,96.4894654 Z M307.15684,145.010849 C306.8753,145.010849 306.600035,144.933129 306.360844,144.784755 L230.30991,97.8342505 C229.869172,97.5618393 229.60018,97.0900262 229.591554,96.5718953 C229.581359,96.0561196 229.833097,95.5741009 230.265209,95.2859888 L298.480093,49.3152224 C298.96867,48.9870729 299.608603,48.9729421 300.110512,49.2783252 L376.08067,95.3833346 C376.522193,95.6502505 376.794321,96.1189234 376.808437,96.6362692 C376.824122,97.1504748 376.578657,97.6340636 376.152035,97.926886 L308.014006,144.746288 C307.752072,144.921353 307.458769,145.010849 307.15684,145.010849 L307.15684,145.010849 Z" id="Fill-150" fill="#582FFF"></path>
                    <path d="M307.533977,143.714501 L301.210712,221.496146 L367.591276,175.223921 L374.828172,97.4768187 L307.533977,143.714501 Z M300.293944,223.092146 L306.782683,143.2788 L306.936392,143.173604 L375.763761,95.8800336 L368.337865,175.659622 L368.188861,175.764034 L300.293944,223.092146 Z" id="Fill-152" fill="#582FFF"></path>
                    <path d="M308.285272,144.150359 L302.126695,219.901088 L366.843902,174.788378 L373.891799,99.0721907 L308.285272,144.150359 Z M299.377961,224.688303 L306.031388,142.843256 L306.491732,142.526882 L376.700135,94.2849757 L369.085239,176.094695 L368.637442,176.407929 L299.377961,224.688303 Z" id="Fill-154" fill="#582FFF"></path>
                    <path d="M307.855591,143.901578 L301.60369,220.811821 L367.271388,175.038101 L374.427508,98.1600449 L307.855591,143.901578 Z M300.75123,223.023297 C300.624968,223.023297 300.499491,222.98954 300.389699,222.926736 C300.145018,222.785428 300.002288,222.513017 300.026599,222.23354 L306.432209,143.437615 C306.450246,143.217802 306.564744,143.020755 306.745902,142.896718 L374.884715,96.0773159 C375.105085,95.9250168 375.420346,95.9085308 375.661105,96.0466991 C375.908139,96.1927178 376.048516,96.4666991 376.021068,96.7485308 L368.690848,175.509914 C368.670458,175.725017 368.557529,175.918138 368.381076,176.040606 L301.168441,222.892194 C301.04767,222.976194 300.89945,223.023297 300.75123,223.023297 L300.75123,223.023297 Z" id="Fill-156" fill="#582FFF"></path>
                    <path d="M308.606885,144.337436 L302.519674,219.217548 L366.524014,174.602557 L373.491134,99.7554168 L308.606885,144.337436 Z M300.75123,223.807716 C300.488512,223.807716 300.228931,223.739417 300.00072,223.609099 C299.490184,223.314707 299.195313,222.748688 299.245504,222.166183 L305.650329,143.374183 C305.688757,142.915716 305.927163,142.505921 306.303595,142.248426 L374.44084,95.4298093 C374.907458,95.1079402 375.555234,95.0812486 376.050869,95.3654355 C376.567678,95.6700336 376.858628,96.2407626 376.801379,96.8248374 L369.471159,175.58308 C369.430379,176.028987 369.19511,176.430931 368.827305,176.686856 L301.616238,223.536875 C301.366068,223.711155 301.058649,223.807716 300.75123,223.807716 L300.75123,223.807716 Z" id="Fill-158" fill="#582FFF"></path>
                    <path d="M226.263663,175.106086 L300.413618,221.618535 L306.747863,143.704217 L231.452145,97.2216 L226.263663,175.106086 Z M301.091195,222.9696 L225.450415,175.521376 L225.465315,175.287432 L230.755746,95.8689645 L307.568954,143.288927 L301.091195,222.9696 Z" id="Fill-160" fill="#582FFF"></path>
                    <path d="M227.077383,174.690561 L299.736512,220.268019 L305.927242,144.120841 L232.147445,98.573215 L227.077383,174.690561 Z M301.767673,224.321215 L224.636852,175.938785 L224.683122,175.236168 L230.059819,94.5168785 L308.389732,142.873402 L301.767673,224.321215 Z" id="Fill-162" fill="#582FFF"></path>
                    <path d="M226.612098,174.927409 L300.123687,221.038699 L306.395193,143.883521 L231.750388,97.8004935 L226.612098,174.927409 Z M300.751857,223.023297 C300.614617,223.023297 300.481297,222.98483 300.366799,222.911821 L225.470256,175.930699 C225.242044,175.787821 225.111861,175.53268 225.129899,175.264979 L230.377198,96.4965308 C230.393666,96.2429607 230.544239,96.0129421 230.770098,95.8975402 C230.99831,95.7797832 231.273575,95.793914 231.485318,95.9242318 L307.540173,142.876307 C307.775442,143.022325 307.907193,143.282961 307.883666,143.558512 L301.478056,222.352867 C301.457666,222.604082 301.304741,222.831746 301.078882,222.945578 C300.977716,222.995821 300.864787,223.023297 300.751857,223.023297 L300.751857,223.023297 Z" id="Fill-164" fill="#582FFF"></path>
                    <path d="M227.425817,174.511884 L299.446581,219.688183 L305.574573,144.298576 L232.446473,99.1528935 L227.425817,174.511884 Z M300.751544,223.808108 C300.466083,223.808108 300.18768,223.728034 299.946921,223.57495 L225.054299,176.596183 C224.580622,176.29865 224.310062,175.768744 224.347705,175.212146 L229.595004,96.4444822 C229.62951,95.9177159 229.942419,95.4396224 230.412174,95.1986131 C230.881145,94.9583888 231.448145,94.979585 231.896726,95.2551364 L307.951581,142.208781 C308.440942,142.511024 308.713071,143.053492 308.665232,143.624221 L302.259622,222.417006 C302.218842,222.938277 301.901228,223.409305 301.432257,223.647174 C301.218946,223.753155 300.984461,223.808108 300.751544,223.808108 L300.751544,223.808108 Z" id="Fill-166" fill="#582FFF"></path>
                    <path d="M103.811583,112.231379 L152.284985,143.127679 L198.604102,112.337361 L150.15501,81.9984449 L103.811583,112.231379 Z M152.293612,144.065024 L102.363106,112.23923 L150.146384,81.0681645 L150.358911,81.2008374 L200.05101,112.31695 L152.293612,144.065024 Z" id="Fill-168" fill="#582FFF"></path>
                    <path d="M105.259825,112.223764 L152.276124,142.191353 L197.156173,112.356437 L150.163402,82.9305308 L105.259825,112.223764 Z M152.302788,145.001036 L100.915178,112.246531 L150.137522,80.1365495 L150.774319,80.5345682 L201.498468,112.297559 L152.302788,145.001036 Z" id="Fill-170" fill="#582FFF"></path>
                    <path d="M104.432303,112.228318 L152.280672,142.726598 L197.983382,112.34529 L150.158539,82.3973271 L104.432303,112.228318 Z M152.289299,144.324953 C152.15049,144.324953 152.014817,144.285701 151.898751,144.211121 L102.696797,112.85086 C102.486622,112.715832 102.361145,112.487383 102.359577,112.239308 C102.358008,111.991234 102.481133,111.762 102.68817,111.625402 L149.753876,80.9214393 C149.997772,80.7683551 150.305975,80.7683551 150.538892,80.9159439 L199.714183,111.709402 C199.925141,111.84286 200.052187,112.069738 200.056108,112.317813 C200.060813,112.565888 199.938473,112.798262 199.729083,112.93486 L152.692394,144.203271 C152.572407,144.282561 152.432813,144.324953 152.289299,144.324953 L152.289299,144.324953 Z" id="Fill-172" fill="#582FFF"></path>
                    <path d="M105.880545,112.220703 L152.27181,141.790273 L196.536238,112.365151 L150.167715,83.328628 L105.880545,112.220703 Z M152.289063,145.110236 C152.000466,145.110236 151.718927,145.027806 151.476599,144.873151 L102.275429,113.51289 C101.839395,113.232628 101.578246,112.759245 101.575109,112.244254 C101.571972,111.729264 101.827632,111.25274 102.258176,110.969338 L149.325449,80.2638056 C149.832848,79.9442916 150.469644,79.9427215 150.958221,80.252815 L200.12959,111.043918 C200.567976,111.321039 200.833047,111.792067 200.840105,112.307058 C200.8503,112.823619 200.595424,113.305637 200.158607,113.592179 L153.125839,144.85745 C152.874885,145.023095 152.586288,145.110236 152.289063,145.110236 L152.289063,145.110236 Z" id="Fill-174" fill="#582FFF"></path>
                    <path d="M152.674514,143.811925 L150.930381,195.381645 L196.502124,164.63372 L198.899522,113.082056 L152.674514,143.811925 Z M150.094389,196.892075 L151.904398,143.380935 L199.75512,111.572411 L197.26675,165.06471 L150.094389,196.892075 Z" id="Fill-176" fill="#582FFF"></path>
                    <path d="M153.444551,144.242366 L151.766294,193.87145 L195.736634,164.20375 L198.04463,114.593507 L153.444551,144.242366 Z M149.259103,198.40274 L151.134203,142.950179 L200.610639,110.060647 L198.032083,165.495151 L149.259103,198.40274 Z" id="Fill-178" fill="#582FFF"></path>
                    <path d="M153.004989,143.995862 L151.288305,194.734217 L196.173844,164.449469 L198.534383,113.729955 L153.004989,143.995862 Z M150.515836,196.865619 C150.363695,196.88132 150.267234,196.834217 150.15901,196.774553 C149.919035,196.64188 149.77552,196.38831 149.784931,196.111974 L151.562002,143.571151 C151.56906,143.336422 151.690616,143.118179 151.886674,142.988647 L198.925715,111.720236 C199.146869,111.571862 199.454288,111.561656 199.687205,111.693544 C199.927964,111.830142 200.069126,112.086067 200.055794,112.360834 L197.611342,164.8836 C197.601931,165.110479 197.481944,165.324011 197.292159,165.453544 L150.918931,196.742366 C150.797375,196.823226 150.658566,196.865619 150.515836,196.865619 L150.515836,196.865619 Z" id="Fill-180" fill="#582FFF"></path>
                    <path d="M153.775027,144.426381 L152.124218,193.224101 L195.408355,164.019578 L197.678707,115.241484 L153.775027,144.426381 Z M150.460077,197.654905 C150.127562,197.654905 149.897782,197.527727 149.780147,197.463353 C149.280591,197.186232 148.981799,196.65868 149.00062,196.086381 L150.777691,143.544774 C150.793376,143.05726 151.045898,142.603503 151.455268,142.333447 L198.491956,111.065821 C198.959359,110.754157 199.579687,110.731391 200.072969,111.010082 C200.574093,111.295839 200.866612,111.828101 200.839164,112.399615 L198.394712,164.920026 C198.374322,165.392624 198.126504,165.835391 197.73282,166.103092 L151.357239,197.394269 C151.114911,197.555989 150.838861,197.643914 150.554185,197.650979 C150.522031,197.653335 150.490662,197.654905 150.460077,197.654905 L150.460077,197.654905 Z" id="Fill-182" fill="#582FFF"></path>
                    <path d="M102.435726,164.552389 L150.143717,195.430632 L151.890203,143.807529 L103.465423,112.941062 L102.435726,164.552389 Z M150.880896,196.842931 L101.642867,164.973959 L102.709423,111.528763 L152.688551,143.385959 L150.880896,196.842931 Z" id="Fill-184" fill="#582FFF"></path>
                    <path d="M103.228428,164.13074 L149.407166,194.019039 L151.090913,144.228236 L104.22205,114.354067 L103.228428,164.13074 Z M151.617917,198.255151 L100.850635,165.39545 L101.953266,110.116385 L153.487527,142.96431 L151.617917,198.255151 Z" id="Fill-186" fill="#582FFF"></path>
                    <path d="M102.775769,164.371436 L149.828142,194.825753 L151.547964,143.987697 L103.789781,113.546725 L102.775769,164.371436 Z M150.515914,196.86609 C150.383379,196.855884 150.235943,196.827622 150.11674,196.749903 L101.644122,165.374725 C101.43081,165.238127 101.306117,165.002613 101.310823,164.747473 L102.359341,112.220781 C102.364831,111.958576 102.511483,111.718351 102.742831,111.593529 C102.975748,111.469492 103.26513,111.482052 103.480794,111.621791 L152.680395,142.980482 C152.896844,143.11865 153.025458,143.36437 153.016831,143.62108 L151.239761,196.161118 C151.231134,196.424108 151.080561,196.662763 150.848429,196.78366 C150.745694,196.837043 150.630412,196.86609 150.515914,196.86609 L150.515914,196.86609 Z" id="Fill-188" fill="#582FFF"></path>
                    <path d="M103.568471,163.949787 L149.090807,193.414161 L150.749459,144.408404 L104.546409,114.959731 L103.568471,163.949787 Z M150.516541,197.651843 L150.457724,197.648703 C150.154226,197.625936 149.903272,197.547432 149.689961,197.409264 L101.218127,166.034871 C100.77582,165.749899 100.516239,165.262385 100.527218,164.731693 L101.574952,112.205002 C101.585932,111.66175 101.890214,111.161675 102.370164,110.902609 C102.861093,110.641974 103.447699,110.665525 103.906475,110.962273 L153.102156,142.318609 C153.550737,142.605936 153.818944,143.113862 153.800907,143.646908 L152.023836,196.187731 C152.005015,196.733338 151.693674,197.228703 151.211371,197.479918 C150.996492,197.592179 150.756517,197.651843 150.516541,197.651843 L150.516541,197.651843 Z" id="Fill-190" fill="#582FFF"></path>
                    <path d="M92.792883,146.614385 L224.646655,235.373338 L350.403804,146.832628 L218.615908,59.6916561 L92.792883,146.614385 Z M224.654497,236.83745 C224.522746,236.83745 224.3957,236.798983 224.286692,236.724404 L91.2495137,147.170198 C91.0675718,147.048516 90.9593477,146.844404 90.9577793,146.625376 C90.956995,146.406348 91.0628664,146.200665 91.2424556,146.077413 L218.231634,58.3484411 C218.341427,58.2730766 218.472393,58.2322542 218.608066,58.2322542 C218.739032,58.2322542 218.866862,58.2707215 218.977439,58.3437308 L351.942468,146.262684 C352.12441,146.383581 352.235771,146.586123 352.238908,146.805151 C352.241261,147.023394 352.136173,147.230647 351.956584,147.357824 L225.03485,236.716553 C224.893688,236.816254 224.750173,236.83745 224.654497,236.83745 L224.654497,236.83745 Z" id="Fill-192" fill="#582FFF"></path>
                    <path d="M94.1856012,146.6052 L224.636381,234.419742 L349.011713,146.853275 L218.62524,60.6386579 L94.1856012,146.6052 Z M224.654419,237.621948 C224.365037,237.621948 224.08585,237.537163 223.846659,237.374658 L90.8118336,147.822022 C90.4157963,147.555892 90.1773896,147.109985 90.1734685,146.630321 C90.1711158,146.149088 90.404817,145.700826 90.7985017,145.429985 L217.786112,57.7017981 C218.029224,57.5345832 218.335859,57.430957 218.61034,57.447443 C218.891879,57.447443 219.168713,57.5298729 219.40712,57.6860972 L352.374502,145.607406 C352.77446,145.872751 353.016004,146.316303 353.023062,146.793611 C353.028551,147.27249 352.799556,147.722321 352.409792,147.998658 L225.486489,237.359742 C225.24024,237.530882 224.953211,237.621948 224.654419,237.621948 L224.654419,237.621948 Z" id="Fill-194" fill="#582FFF"></path>
                    <path d="M93.4894382,146.609753 L224.641322,234.896893 L349.707563,146.842127 L218.621554,60.1651178 L93.4894382,146.609753 Z M224.651517,235.849155 L224.428011,235.698426 L92.0966415,146.617604 L92.5703178,146.291024 L218.611359,59.2175664 L218.832513,59.3643701 L351.099575,146.822501 L224.651517,235.849155 Z M218.608222,58.6248561 C218.552542,58.6248561 218.497646,58.6421271 218.454513,58.6719589 L91.4653344,146.400146 C91.3924008,146.450389 91.349268,146.533604 91.3500523,146.622314 C91.3508365,146.711809 91.3955378,146.794239 91.4684714,146.844482 L224.504866,236.398688 C224.597405,236.459136 224.718177,236.459136 224.809932,236.394763 L351.730882,147.036034 C351.803816,146.985006 351.847733,146.899436 351.846164,146.810725 C351.84538,146.722015 351.799895,146.6388 351.725393,146.590127 L218.761932,58.6711738 C218.715662,58.6413421 218.662334,58.6248561 218.608222,58.6248561 L218.608222,58.6248561 Z M224.654654,237.230052 C224.44448,237.230052 224.242148,237.168034 224.067264,237.050277 L91.0316539,147.496071 C90.7422722,147.301379 90.5681726,146.97637 90.5658199,146.627024 C90.5642515,146.278464 90.7336456,145.951099 91.0206747,145.754052 L218.009069,58.0258654 C218.3557,57.7864262 218.836434,57.7809308 219.19326,58.0156598 L352.158289,145.935398 C352.450023,146.129305 352.626476,146.452744 352.630397,146.80052 C352.635886,147.14751 352.468061,147.47566 352.184168,147.677417 L225.260866,237.037716 C225.034222,237.196295 224.806011,237.230052 224.654654,237.230052 L224.654654,237.230052 Z" id="Fill-196" fill="#582FFF"></path>
                    <path d="M94.8821564,146.602138 L224.631833,233.944867 L348.315472,146.862774 L218.630887,61.1129047 L94.8821564,146.602138 Z M224.654576,238.015335 C224.288339,238.015335 223.933866,237.906998 223.629584,237.702101 L90.5939739,148.147895 C90.0889282,147.80797 89.7854303,147.241166 89.7822934,146.63197 C89.7783722,146.021989 90.074812,145.45126 90.5767207,145.106624 L217.564331,57.3792224 C218.172895,56.9584374 219.001829,56.9490168 219.623725,57.3595963 L352.590322,145.28012 C353.100073,145.61926 353.407493,146.183708 353.415335,146.791335 C353.423177,147.395036 353.133011,147.965764 352.638161,148.31825 L225.711721,237.68012 C225.316468,237.957241 224.918862,238.015335 224.654576,238.015335 L224.654576,238.015335 Z" id="Fill-198" fill="#582FFF"></path>
                    <polygon id="Fill-200" fill="#582FFF" points="219.645919 370.278359 224.654811 236.175892 351.577329 146.816378 344.770193 281.005985"></polygon>
                    <path d="M225.423907,236.594243 L220.489517,368.712897 L344.006115,280.587477 L350.71287,148.384037 L225.423907,236.594243 Z M218.802634,371.843664 L223.885244,235.757383 L224.203642,235.53286 L352.442102,145.246991 L345.534584,281.424336 L345.225596,281.64572 L218.802634,371.843664 Z" id="Fill-202" fill="#582FFF"></path>
                    <path d="M225.039477,236.38495 L220.067444,369.495903 L344.388663,280.796613 L351.144825,147.599305 L225.039477,236.38495 Z M219.224394,371.061286 L224.270929,235.96652 L352.009834,146.031566 L345.15329,281.215043 L219.224394,371.061286 Z" id="Fill-204" fill="#582FFF"></path>
                    <path d="M225.80873,236.803536 L220.910415,367.929892 L343.624743,280.377555 L350.280523,149.16877 L225.80873,236.803536 Z M218.381266,372.626826 L223.501519,235.548247 L223.819133,235.324508 L352.873979,144.462415 L345.917054,281.63363 L345.608066,281.855013 L218.381266,372.626826 Z" id="Fill-206" fill="#582FFF"></path>
                    <path d="M225.303685,236.528299 L220.356747,368.957832 L344.125867,280.653421 L350.849091,148.138318 L225.303685,236.528299 Z M219.645448,370.94086 C219.537224,370.94086 219.428216,370.914168 219.331755,370.860785 C219.109817,370.741458 218.976498,370.507514 218.985124,370.253159 L223.994801,236.150692 C224.001859,235.943439 224.104593,235.755028 224.274772,235.634916 L351.196506,146.274617 C351.307867,146.195327 351.440402,146.15372 351.579212,146.15372 C351.690573,146.154505 351.798797,146.182766 351.895257,146.234579 C352.117195,146.357047 352.251299,146.598056 352.237183,146.850056 L345.431614,281.040449 C345.420635,281.23985 345.316332,281.429047 345.152427,281.549159 L220.029722,370.817607 C219.917577,370.899252 219.784257,370.94086 219.645448,370.94086 L219.645448,370.94086 Z" id="Fill-208" fill="#582FFF"></path>
                    <path d="M226.072938,236.946886 L221.200502,367.392606 L343.361946,280.235148 L349.984005,149.706998 L226.072938,236.946886 Z M219.64537,371.726064 C219.40461,371.726064 219.166204,371.66483 218.956029,371.550213 C218.472158,371.289578 218.181208,370.780867 218.201598,370.225054 L223.21049,236.121017 C223.227743,235.666475 223.451249,235.254325 223.824544,234.99212 L350.745494,145.632606 C351.182312,145.323297 351.798718,145.28797 352.270042,145.545465 C352.757834,145.814736 353.050353,146.342288 353.020552,146.892606 L346.2142,281.080643 C346.191457,281.514774 345.967166,281.926138 345.614262,282.182849 L220.485283,371.456793 C220.245307,371.631073 219.952789,371.726064 219.64537,371.726064 L219.64537,371.726064 Z" id="Fill-210" fill="#582FFF"></path>
                    <path d="M225.688115,236.737593 L220.778821,368.175611 L343.743319,280.444284 L350.416352,148.922265 L225.688115,236.737593 Z M219.935771,369.740994 L224.919568,236.319163 L351.28136,147.353742 L344.507945,280.862714 L219.935771,369.740994 Z M351.579368,146.546714 C351.52212,146.546714 351.468007,146.5632 351.423306,146.594602 L224.500788,235.955686 C224.430207,236.004359 224.390211,236.079723 224.38629,236.165293 L219.377398,370.266976 C219.373476,370.371387 219.426804,370.466378 219.516207,370.51348 C219.611883,370.566864 219.721676,370.555873 219.800883,370.49935 L344.925157,281.228546 C344.991032,281.180658 345.035734,281.099798 345.040439,281.018153 L351.845223,146.830116 C351.851497,146.72649 351.796601,146.628359 351.706414,146.579686 C351.667987,146.557705 351.623285,146.546714 351.579368,146.546714 L351.579368,146.546714 Z M219.645605,371.333069 C219.47229,371.333069 219.298974,371.289107 219.14448,371.205107 C218.790792,371.01591 218.579049,370.644583 218.593949,370.238714 L223.602841,236.135462 C223.615389,235.804957 223.777725,235.505854 224.04907,235.314303 L350.970804,145.953219 C351.289202,145.728695 351.736215,145.701219 352.084414,145.8912 C352.437319,146.085892 352.65063,146.469779 352.628671,146.870938 L345.823103,281.059761 C345.806634,281.377705 345.641161,281.679163 345.382364,281.866004 L220.257306,371.136807 C220.08007,371.26477 219.868327,371.333069 219.645605,371.333069 L219.645605,371.333069 Z" id="Fill-212" fill="#582FFF"></path>
                    <path d="M226.457447,237.156179 L221.621871,366.6096 L342.979476,280.025226 L349.552128,150.490161 L226.457447,237.156179 Z M219.645605,372.118273 C219.342891,372.118273 219.040178,372.041338 218.771186,371.896105 C218.153211,371.564815 217.783837,370.917936 217.809717,370.209039 L222.819393,236.106572 C222.840568,235.529563 223.12446,235.006721 223.597352,234.673077 L350.519871,145.311207 C351.086871,144.910834 351.849144,144.867656 352.460061,145.202086 C353.078037,145.542796 353.449763,146.214011 353.41212,146.914273 L346.606551,281.099955 C346.57675,281.654983 346.290505,282.178609 345.84114,282.502834 L220.712945,371.775993 C220.403958,371.999731 220.0338,372.118273 219.645605,372.118273 L219.645605,372.118273 Z" id="Fill-214" fill="#582FFF"></path>
                    <path d="M88.9939046,280.62351 L219.28078,369.553604 L224.255166,236.379847 L91.9951618,147.346912 L88.9939046,280.62351 Z M220.0109,371.0028 L88.2002614,281.031735 L88.2049668,280.818202 L91.243083,145.895361 L225.055083,235.971622 L225.046456,236.189865 L220.0109,371.0028 Z" id="Fill-216" fill="#582FFF"></path>
                    <path d="M89.7877046,280.214893 L218.550032,368.1048 L223.454622,236.787679 L92.7466133,148.799641 L89.7877046,280.214893 Z M220.741962,372.451604 L87.4067751,281.440351 L87.4208913,280.801323 L90.491161,144.443417 L225.855157,235.565361 L225.830061,236.220875 L220.741962,372.451604 Z" id="Fill-218" fill="#582FFF"></path>
                    <path d="M89.26619,280.483222 L219.030767,369.056905 L223.980841,236.519036 L92.2525469,147.845652 L89.26619,280.483222 Z M219.645605,370.941017 C219.51307,370.941017 219.383671,370.900194 219.271526,370.82483 L88.2247295,281.375821 C88.0396506,281.249428 87.9314266,281.037465 87.9369162,280.814512 L90.9577793,146.606064 C90.9632689,146.364269 91.0997253,146.144456 91.314605,146.032979 C91.4071444,145.985092 91.5130158,145.95997 91.6188871,145.95997 C91.7514224,145.95997 91.8792523,145.998437 91.9874763,146.071447 L225.023871,235.626437 C225.212871,235.75283 225.324232,235.973428 225.315605,236.201092 L220.307497,370.301989 C220.298086,370.543783 220.158493,370.762026 219.941261,370.871933 C219.851074,370.91668 219.749908,370.941017 219.645605,370.941017 L219.645605,370.941017 Z" id="Fill-220" fill="#582FFF"></path>
                    <path d="M90.05999,280.074606 L218.300019,367.608101 L223.181081,236.926867 L93.0039983,149.297596 L90.05999,280.074606 Z M219.645762,371.725671 C219.357164,371.725671 219.077193,371.640101 218.834866,371.476811 L87.7825793,282.023877 C87.3763469,281.74597 87.1410772,281.286718 87.1528407,280.795279 L90.174488,146.5884 C90.1854672,146.060849 90.4842598,145.5804 90.9532307,145.337036 C91.4222017,145.095241 92.0017494,145.134493 92.4260191,145.421036 L225.461629,234.975241 C225.871783,235.249222 226.117247,235.731241 226.099994,236.228176 L221.091102,370.331428 C221.070712,370.859764 220.765646,371.334718 220.294322,371.572587 C220.094343,371.673858 219.870052,371.725671 219.645762,371.725671 L219.645762,371.725671 Z" id="Fill-222" fill="#582FFF"></path>
                    <path d="M89.6632469,280.279346 L218.66555,368.332542 L223.581118,236.723383 L92.6292137,148.571271 L89.6632469,280.279346 Z M219.396454,369.781738 L88.8696037,280.68757 L88.8743091,280.474037 L91.8771349,147.11972 L224.381035,236.315159 L224.372409,236.533402 L219.396454,369.781738 Z M91.6191224,146.352729 C91.5759896,146.352729 91.5320726,146.36372 91.4959979,146.381776 C91.4081639,146.428093 91.3524834,146.516804 91.3501307,146.61415 L88.3284834,280.823383 C88.3261307,280.914449 88.370832,281.000019 88.4469025,281.051832 L219.492131,370.500056 C219.576828,370.556579 219.685836,370.562075 219.766612,370.520467 C219.853662,370.476505 219.911695,370.385439 219.915616,370.285738 L224.924508,236.185626 C224.927645,236.094561 224.880591,236.00271 224.805305,235.951682 L91.7689108,146.396692 C91.7249938,146.367645 91.6732344,146.352729 91.6191224,146.352729 L91.6191224,146.352729 Z M219.64584,371.332991 C219.434882,371.332991 219.229413,371.269402 219.052176,371.14929 L88.0038112,281.70028 C87.7073714,281.496168 87.5364087,281.161738 87.544251,280.805327 L90.5658983,146.596879 C90.5753091,146.211421 90.7925415,145.862075 91.1344668,145.684654 C91.4638444,145.512729 91.8928195,145.53471 92.2057282,145.745103 L225.242122,235.300093 C225.543268,235.502636 225.721288,235.852766 225.707956,236.214673 L220.699064,370.31557 C220.684164,370.701028 220.462226,371.047234 220.119517,371.221514 C219.972865,371.295308 219.809745,371.332991 219.64584,371.332991 L219.64584,371.332991 Z" id="Fill-224" fill="#582FFF"></path>
                    <path d="M90.4570469,279.870729 L217.934802,366.883738 L222.780574,237.131215 L93.3806651,150.024785 L90.4570469,279.870729 Z M219.645997,372.11843 C219.278192,372.11843 218.920582,372.007738 218.612379,371.799701 L87.5624452,282.348336 C87.0440676,281.991925 86.7460593,281.409421 86.7609598,280.786879 L89.7818228,146.579215 C89.7975075,145.905645 90.1778602,145.296449 90.774661,144.987925 C91.3573456,144.680972 92.0929556,144.722579 92.644271,145.093907 L225.679881,234.648897 C226.203748,235.002168 226.515088,235.612935 226.491561,236.244897 L221.483454,370.345009 C221.45679,371.015439 221.070947,371.618355 220.474931,371.921383 C220.216134,372.050916 219.931458,372.11843 219.645997,372.11843 L219.645997,372.11843 Z" id="Fill-226" fill="#582FFF"></path>
                    <path d="M169.151785,30.4700187 L217.49971,59.5206729 L262.212718,30.5987664 L213.898515,2.07566355 L169.151785,30.4700187 Z M217.515395,60.4454579 L167.658606,30.4880748 L213.883615,1.15558879 L263.704328,30.5681495 L217.515395,60.4454579 Z" id="Fill-228" fill="#582FFF"></path>
                    <path d="M170.645198,30.4516486 L217.485045,58.5955738 L260.720559,30.6298542 L213.912866,2.9954243 L170.645198,30.4516486 Z M217.53053,61.369929 L166.164879,30.5066019 L213.868949,0.235985047 L265.196958,30.5372187 L217.53053,61.369929 Z" id="Fill-230" fill="#582FFF"></path>
                    <path d="M169.79164,30.4631103 L217.493358,59.1235963 L261.57349,30.6114841 L213.90471,2.46991402 L169.79164,30.4631103 Z M217.507474,60.7117458 C217.376507,60.7117458 217.247893,60.6764187 217.134963,60.6089047 L168.030254,31.1044935 C167.812237,30.9733907 167.680486,30.743372 167.676565,30.4890168 C167.674212,30.2338766 167.800474,30.0007178 168.014569,29.8633346 L213.501615,1.00030654 C213.729827,0.856642991 214.027051,0.850362617 214.261536,0.986960748 L263.328602,29.9559701 C263.547403,30.0831477 263.682291,30.3139514 263.686997,30.5706617 C263.691702,30.8203065 263.564656,31.0597458 263.353698,31.1955589 L217.902727,60.5947738 C217.785876,60.6709234 217.648636,60.7117458 217.507474,60.7117458 L217.507474,60.7117458 Z" id="Fill-232" fill="#582FFF"></path>
                    <path d="M171.285054,30.4447402 L217.477908,58.1984972 L260.081332,30.642572 L213.919846,3.38967477 L171.285054,30.4447402 Z M217.507709,61.4972636 C217.234796,61.4972636 216.967373,61.4226841 216.733672,61.2837308 L167.62661,31.7777495 C167.174107,31.5061234 166.899626,31.0280299 166.892568,30.4996935 C166.887863,29.9697869 167.149012,29.4861981 167.592103,29.2020112 L213.081502,0.336628037 C213.557531,0.0390953271 214.173937,0.0281046729 214.65624,0.308366355 L263.727228,29.2797308 C264.181298,29.5435065 264.461269,30.0216 264.471464,30.5554318 C264.481659,31.0751327 264.215805,31.5728523 263.778203,31.8554692 L218.328016,61.2538991 C218.088041,61.4116935 217.80258,61.4972636 217.507709,61.4972636 L217.507709,61.4972636 Z" id="Fill-234" fill="#582FFF"></path>
                    <path d="M217.888297,60.2044486 L214.9686,112.960374 L258.969525,84.0368972 L262.51504,31.3374953 L217.888297,60.2044486 Z M214.099671,114.470804 L217.126807,59.7616822 L217.294633,59.6533458 L263.402791,29.8294206 L259.72631,84.4788785 L259.563189,84.5864299 L214.099671,114.470804 Z" id="Fill-236" fill="#582FFF"></path>
                    <path d="M218.649159,60.6467439 L215.837686,111.450258 L258.213682,83.5952299 L261.627446,32.8466692 L218.649159,60.6467439 Z M213.230898,115.980763 L216.366259,59.3184449 L216.869736,58.9934355 L264.289915,28.3200897 L260.482466,84.9196037 L259.994674,85.2414729 L213.230898,115.980763 Z" id="Fill-238" fill="#582FFF"></path>
                    <path d="M218.214538,60.3938019 L215.34111,112.312867 L258.645637,83.8478579 L262.134687,31.9845308 L218.214538,60.3938019 Z M214.534135,114.445054 C214.407874,114.445054 214.284749,114.412082 214.170251,114.347708 C213.929492,114.20797 213.791467,113.95126 213.807152,113.675708 L216.780961,59.9424 C216.793509,59.7092411 216.918202,59.4957084 217.113476,59.3701009 L262.563662,29.970886 C262.798148,29.8232972 263.095372,29.8178019 263.32672,29.955185 C263.565911,30.0949234 263.703936,30.3539888 263.685115,30.6318953 L260.073724,84.3071103 C260.058824,84.5332037 259.936484,84.7435963 259.7467,84.8684187 L214.934094,114.324942 C214.813322,114.404232 214.675297,114.445054 214.534135,114.445054 L214.534135,114.445054 Z" id="Fill-240" fill="#582FFF"></path>
                    <path d="M218.975478,60.8361757 L216.210275,110.802045 L257.889088,83.4062692 L261.247171,33.4929981 L218.975478,60.8361757 Z M214.533586,115.229708 C214.271653,115.229708 214.019914,115.162979 213.786213,115.031877 C213.280383,114.739839 212.991785,114.204437 213.024723,113.630568 L215.997748,59.8988299 C216.025196,59.4152411 216.283209,58.9716897 216.689441,58.7102692 L262.138059,29.3118393 C262.624283,29.0041009 263.245395,28.9931103 263.726914,29.2796523 C264.22098,29.5693346 264.506441,30.1078766 264.468014,30.6833159 L260.856624,84.3601009 C260.826039,84.8287738 260.571947,85.2644748 260.178263,85.5235402 L215.364873,114.981634 C215.113918,115.144923 214.827673,115.229708 214.533586,115.229708 L214.533586,115.229708 Z" id="Fill-242" fill="#582FFF"></path>
                    <path d="M166.576993,83.9452037 L214.179113,113.039036 L217.102732,60.1975402 L168.768922,31.1563065 L166.576993,83.9452037 Z M214.889628,114.392456 L165.774723,84.3746243 L168.041155,29.8021009 L217.912059,59.7681196 L217.898727,60.0044187 L214.889628,114.392456 Z" id="Fill-244" fill="#582FFF"></path>
                    <path d="M167.379655,83.5158617 L213.468991,111.684908 L216.293796,60.6270393 L169.497866,32.5098056 L167.379655,83.5158617 Z M215.59975,115.74674 L164.972061,84.8041234 L167.312211,28.4487589 L218.722563,59.3395626 L218.681783,60.0484598 L215.59975,115.74674 Z" id="Fill-246" fill="#582FFF"></path>
                    <path d="M166.920879,83.7611888 L213.874439,112.458572 L216.755709,60.3817121 L169.081439,31.7361421 L166.920879,83.7611888 Z M214.533978,114.44474 C214.399875,114.44474 214.269692,114.407843 214.155194,114.337974 L165.795505,84.7825346 C165.570431,84.6443664 165.437111,84.3947215 165.44809,84.1301607 L167.677663,30.4494505 C167.688642,30.1927402 167.835294,29.9587963 168.059584,29.8378991 C168.170161,29.7790206 168.292501,29.752329 168.41092,29.7507589 C168.536398,29.7507589 168.665796,29.786871 168.77951,29.854385 L217.881866,59.3572262 C218.114783,59.4969645 218.249671,59.7513196 218.234771,60.0221607 L215.260962,113.755469 C215.245277,114.012179 215.097057,114.243768 214.873551,114.361525 C214.771601,114.415693 214.653182,114.44474 214.533978,114.44474 L214.533978,114.44474 Z" id="Fill-248" fill="#582FFF"></path>
                    <path d="M167.723462,83.3318467 L213.164238,111.104445 L215.946695,60.8112112 L169.810305,33.0896411 L167.723462,83.3318467 Z M214.533508,115.229865 C214.25589,115.229865 213.983761,115.152931 213.746923,115.008482 L165.387234,85.4522579 C164.919047,85.1649308 164.642213,84.6468 164.664956,84.0980523 L166.893744,30.416557 C166.918056,29.8835103 167.221554,29.3983514 167.686603,29.1471364 C167.907757,29.0301645 168.151653,28.9689308 168.401039,28.9657907 C168.678657,28.9657907 168.944512,29.039585 169.178998,29.1793234 L218.28606,58.6845196 C218.768363,58.9742019 219.049118,59.5033234 219.017749,60.0662019 L216.043939,113.798725 C216.011786,114.331772 215.702798,114.812221 215.237749,115.05637 C215.027574,115.168632 214.78211,115.229865 214.533508,115.229865 L214.533508,115.229865 Z" id="Fill-250" fill="#582FFF"></path>
                </g>
            </g>
        </g>
    </g>
</svg>