<?xml version="1.0" encoding="utf-8"?>
<!-- Generator: Adobe Illustrator 24.0.0, SVG Export Plug-In . SVG Version: 6.00 Build 0)  -->
<svg version="1.1" id="Layer_1" xmlns="http://www.w3.org/2000/svg" xmlns:xlink="http://www.w3.org/1999/xlink" x="0px" y="0px"
	 viewBox="0 0 239 94" style="enable-background:new 0 0 239 94;" xml:space="preserve">
<style type="text/css">
	.st0{fill:#ED5226;}
	.st1{fill:#7FB842;}
	.st2{fill:#FFFFFF;}
	.st3{fill:#349DD7;}
	.st4{fill:#FBB512;}
</style>
<path class="st0" d="M22.1,41c6.4,0,12.9,0,19.3,0c0-6.4,0-12.9,0-19.3H22.1V41z"/>
<path class="st1" d="M43.4,41c6.4,0,12.8,0,19.3,0c0-6.4,0-12.9,0-19.3H43.4C43.4,28.2,43.4,34.6,43.4,41z"/>
<path class="st2" d="M207.7,36.7c0-1.7,0-3.5,0-5.2c-1.4,0.4-2.7,0.9-4.1,1.2c0,1.3,0,2.6,0,4c-2,0-4.1,0-6.1,0c0-1-0.1-2.1,0.1-3.1
	c0.1-0.8,0.6-1.6,1.4-1.9c1-0.4,2.1-0.1,3.1,0.3c0-1.2,0-2.4,0-3.6c-2-0.6-4.3-0.4-6.1,0.7c-1.1,0.7-2,1.9-2.4,3.2
	c-0.4,1.4-0.2,3-0.3,4.4c-1,0-1.9,0-2.9,0c0,1.1,0,2.2,0,3.3c1,0,1.9,0,2.9,0c0,4.7,0,9.4,0,14.1c1.4,0,2.8,0,4.2,0
	c0-4.7,0-9.4,0-14.1c2,0,4.1,0,6.1,0c0,3,0,6,0,9c0,1.4,0.3,2.9,1.2,4c0.8,1,2.1,1.4,3.3,1.5c1.3,0.1,2.6-0.1,3.8-0.6v-3.4
	c-0.9,0.6-2.2,0.9-3.2,0.3c-0.6-0.3-0.8-1-0.9-1.7c-0.1-1.1,0-2.2-0.1-3.2c0-1.9,0-3.9,0-5.8c1.4,0,2.8,0,4.1,0v-3.4
	C210.5,36.7,209.1,36.7,207.7,36.7z"/>
<path class="st2" d="M106.7,29.3c-1.2,0.1-2.1,1.2-2.1,2.4c0,1.1,0.9,2.1,1.9,2.3c1,0.2,2.2-0.2,2.8-1.2c0.5-0.8,0.4-2-0.3-2.7
	C108.4,29.5,107.5,29.2,106.7,29.3z"/>
<path class="st2" d="M95.2,29.9c-2.4,6-4.9,12-7.3,18c-0.5-1.2-1-2.4-1.4-3.6c-1.9-4.8-3.8-9.6-5.7-14.4c-2,0-4,0-6.1,0
	c0,8.1,0,16.2,0,24.3c1.3,0,2.6,0,4,0c0-3.6,0-7.3,0-10.9c0-2.6,0-5.2,0-7.9c0.1,0.1,0.1,0.2,0.2,0.4c2.5,6.1,4.9,12.3,7.4,18.4
	c1,0,2,0,3,0c2.4-6.1,4.9-12.2,7.3-18.4c0.1-0.1,0.1-0.3,0.2-0.4c0,0.3,0,0.5,0,0.8c0,6,0,12,0,17.9c1.4,0,2.8,0,4.2,0
	c0-8.1,0-16.2,0-24.3C99.1,29.9,97.2,29.8,95.2,29.9z"/>
<path class="st2" d="M124.4,36.7c-2-0.6-4.2-0.6-6.2,0c-1.8,0.5-3.5,1.7-4.6,3.3c-1.3,1.9-1.8,4.2-1.6,6.5c0.1,2.2,1,4.3,2.5,5.8
	c1.4,1.4,3.4,2.2,5.4,2.3c2,0.1,4-0.2,5.7-1.2c0-1.3,0-2.5,0-3.8c-1.1,0.8-2.4,1.4-3.7,1.5c-1.4,0.1-2.8-0.2-3.9-1.2
	c-1-0.9-1.6-2.2-1.7-3.5c-0.2-1.7,0.1-3.5,1.1-4.8c0.8-1.1,2.1-1.8,3.5-1.9c1.7-0.2,3.4,0.4,4.8,1.5c0-1.3,0-2.7,0-4
	C125.2,37,124.8,36.8,124.4,36.7z"/>
<path class="st2" d="M152.4,37.1c-1.9-0.8-4-1-6-0.7c-2.1,0.3-4.1,1.3-5.5,2.9c-1.2,1.5-1.8,3.4-1.9,5.3c-0.2,2.2,0.2,4.6,1.5,6.5
	c1.1,1.6,2.9,2.7,4.8,3.1c1.6,0.3,3.3,0.3,4.9,0c1.9-0.4,3.6-1.4,4.8-3c1.1-1.4,1.7-3.3,1.8-5.1c0.1-1.9-0.1-3.8-0.8-5.5
	C155.3,39.2,154,37.8,152.4,37.1z M152,48.8c-0.4,0.9-1.1,1.7-2,2c-1.1,0.4-2.3,0.4-3.4,0.1c-1.1-0.3-2.1-1.1-2.6-2.2
	c-0.7-1.3-0.8-2.9-0.6-4.4c0.1-1.3,0.6-2.7,1.6-3.6c0.7-0.7,1.7-1,2.7-1.1c1.3-0.1,2.6,0.3,3.5,1.2c1,0.9,1.3,2.3,1.4,3.6
	C152.7,46,152.6,47.5,152,48.8z"/>
<path class="st2" d="M167.5,44.7c-1.2-0.7-2.6-1-3.8-1.8c-0.7-0.4-0.9-1.4-0.6-2.1c0.4-0.7,1.2-1.1,2-1.1c1.5-0.1,3.1,0.4,4.4,1.3
	c0-1.3,0-2.6,0-3.8c-1.8-0.7-3.8-0.9-5.8-0.6c-1.6,0.3-3.2,1.1-4.1,2.5c-0.8,1.2-0.9,2.8-0.6,4.2c0.2,0.9,0.8,1.8,1.6,2.4
	c1.1,0.8,2.4,1.3,3.6,1.8c0.7,0.3,1.3,0.6,1.8,1.2c0.5,0.7,0.4,1.9-0.5,2.4c-0.9,0.4-1.9,0.4-2.9,0.3c-1.4-0.2-2.7-0.8-3.8-1.6
	c0,1.3,0,2.7,0,4c1.3,0.6,2.8,0.9,4.2,1c2,0.1,4.3-0.3,5.8-1.8c1.6-1.4,2-4,1.1-5.9C169.4,45.9,168.5,45.2,167.5,44.7z"/>
<path class="st2" d="M185.8,37.2c-1.9-1-4.1-1.1-6.2-0.8c-1.7,0.2-3.3,0.9-4.6,2c-1.6,1.3-2.5,3.3-2.7,5.4c-0.3,2-0.2,4.2,0.7,6.1
	c0.8,1.9,2.4,3.4,4.2,4.1c1.9,0.7,3.9,0.8,5.9,0.5c2-0.3,3.9-1.4,5.1-3c1.3-1.7,1.9-3.8,1.9-5.9c0-1.4-0.1-2.8-0.6-4.2
	C188.8,39.6,187.5,38.1,185.8,37.2z M185.6,47.2c-0.2,0.9-0.5,1.8-1.1,2.6c-0.6,0.7-1.5,1.2-2.4,1.3c-1,0.1-2,0.1-3-0.3
	c-1-0.4-1.8-1.3-2.2-2.3c-0.5-1.2-0.6-2.5-0.5-3.8c0.1-1.2,0.4-2.5,1.3-3.5c0.7-0.9,1.9-1.4,3-1.5c1.2-0.1,2.4,0.2,3.3,1
	c0.8,0.7,1.3,1.7,1.5,2.8C185.8,44.7,185.8,46,185.6,47.2z"/>
<path class="st2" d="M134.9,37c-1,0.6-1.7,1.6-2.2,2.7c0-1,0-2,0-3c-1.4,0-2.7,0-4.1,0c0,5.8,0,11.6,0,17.4c1.4,0,2.7,0,4.1,0
	c0-2.8,0-5.6,0-8.3c0-1.2,0.1-2.5,0.6-3.6c0.5-1,1.4-2,2.6-2.1c1-0.1,2,0.1,2.8,0.7c0-1.4,0-2.8,0-4.2C137.5,36.2,136,36.3,134.9,37
	z"/>
<path class="st2" d="M105,36.7c0,5.8,0,11.6,0,17.4c1.4,0,2.8,0,4.1,0c0-5.8,0-11.6,0-17.4C107.7,36.7,106.3,36.7,105,36.7z"/>
<path class="st3" d="M22.1,62.3h19.3c0-6.4,0-12.8,0-19.3c-6.4,0-12.9,0-19.3,0V62.3z"/>
<path class="st4" d="M43.4,62.3h19.3c0-6.4,0-12.9,0-19.3c-6.4,0-12.9,0-19.3,0C43.4,49.4,43.4,55.8,43.4,62.3z"/>
</svg>
