<?xml version="1.0" encoding="UTF-8"?>
<svg width="697px" height="919px" viewBox="0 0 697 919" version="1.1" xmlns="http://www.w3.org/2000/svg" xmlns:xlink="http://www.w3.org/1999/xlink">
    <!-- Generator: Sketch 53.1 (72631) - https://sketchapp.com -->
    <title>Group 81@2x</title>
    <desc>Created with Sketch.</desc>
    <defs>
        <polygon id="path-1" points="0 0.521962432 282.957808 0.521962432 282.957808 194.307877 0 194.307877"></polygon>
        <polygon id="path-3" points="0.0280146462 0.236199426 143.312629 0.236199426 143.312629 245.247388 0.0280146462 245.247388"></polygon>
        <polygon id="path-5" points="0.536926368 0.97860851 106.993501 0.97860851 106.993501 132.800032 0.536926368 132.800032"></polygon>
    </defs>
    <g id="Welcome" stroke="none" stroke-width="1" fill="none" fill-rule="evenodd">
        <g id="4k-" transform="translate(-413.000000, -2161.000000)">
            <g id="Group-81" transform="translate(413.000000, 2161.000000)">
                <path d="M46.3073842,374.977292 L280.16514,531.12404 L510.692616,375.366323 L276.880252,221.864027 L46.3073842,374.977292 Z M280.172307,534 L42,374.972519 L276.873084,219 L277.530062,219.434377 L515,375.337682 L280.172307,534 Z" id="Fill-1" fill="#582FFF"></path>
                <path d="M51.9080438,372.964148 L281.155856,527.308857 L507.094342,373.377554 L277.889477,221.645476 L51.9080438,372.964148 Z M281.179716,536 L39,372.947323 L277.870389,213 L279.845964,214.309921 L520,373.293431 L281.179716,536 Z" id="Fill-2" fill="#582FFF"></path>
                <g id="Group-80">
                    <path d="M46.6278413,378.570773 L278.482626,533.117106 L507.011762,378.970788 L275.202338,227.038841 L46.6278413,378.570773 Z M278.487401,537.9911 C278.181814,537.9911 277.723433,537.929193 277.262665,537.624419 L41.4018216,380.406557 C40.7834849,379.992256 40.4134378,379.304134 40.4134378,378.561249 C40.4134378,377.825507 40.7858723,377.135005 41.404209,376.725465 L273.970439,222.550576 C274.679497,222.069605 275.682205,222.062462 276.417525,222.543433 L512.223457,377.096908 C512.844182,377.499304 513.219003,378.185044 513.223778,378.932692 C513.228553,379.670815 512.865668,380.358936 512.249719,380.775619 L279.731237,537.612514 C279.358802,537.860142 278.931457,537.9911 278.487401,537.9911 L278.487401,537.9911 Z" id="Fill-3" fill="#582FFF"></path>
                    <path d="M50.9339955,378.576488 L278.477135,530.248902 L502.706563,378.997932 L275.211171,229.894664 L50.9339955,378.576488 Z M278.486685,540.373095 C277.58186,540.373095 276.698522,540.108799 275.944103,539.60878 L40.0737107,382.386156 C38.7892893,381.524219 38.0277085,380.097974 38.0277085,378.562202 C38.0277085,377.024048 38.7940641,375.597804 40.0808729,374.743009 L272.647103,220.565739 C274.146391,219.558558 276.19478,219.546652 277.729879,220.551452 L513.538199,375.107309 C514.825008,375.943055 515.6033,377.369299 515.61285,378.919358 C515.6224,380.450368 514.865594,381.881375 513.593109,382.743312 L281.069852,539.58497 C280.301109,540.099275 279.408221,540.373095 278.486685,540.373095 L278.486685,540.373095 Z" id="Fill-5" fill="#582FFF"></path>
                    <path d="M279.674417,536.416992 L276.840572,779.988127 L503.827447,624.851296 L509.75775,381.223017 L279.674417,536.416992 Z M274.398261,784.54068 L277.30134,535.143135 L277.819406,534.793121 L512.257359,376.660939 L506.183812,626.125154 L274.398261,784.54068 Z" id="Fill-7" fill="#582FFF"></path>
                    <path d="M282.047731,537.691326 L279.283122,775.433668 L501.468935,623.573152 L507.258381,385.783189 L282.047731,537.691326 Z M271.956189,789.096091 L274.928503,533.869753 L514.757206,372.101719 L508.542802,627.399488 L271.956189,789.096091 Z" id="Fill-9" fill="#582FFF"></path>
                    <path d="M280.693359,536.963442 L277.885776,778.036862 L502.8171,624.304847 L508.68533,383.179043 L280.693359,536.963442 Z M275.620133,784.477582 C275.252473,784.477582 274.899138,784.391865 274.576839,784.218049 C273.843907,783.825177 273.395076,783.068005 273.402238,782.241783 L276.271893,535.753872 C276.279056,535.030035 276.644328,534.353819 277.245953,533.946661 L509.764435,377.112147 C510.43052,376.66213 511.352056,376.609747 512.070664,377.005 C512.803596,377.402634 513.242877,378.166948 513.221391,378.99317 L507.221853,625.538227 C507.202754,626.252539 506.842257,626.914469 506.252569,627.312103 L276.871131,784.091854 C276.496309,784.344244 276.066577,784.477582 275.620133,784.477582 L275.620133,784.477582 Z" id="Fill-11" fill="#582FFF"></path>
                    <path d="M283.064286,538.237776 L280.328325,773.480023 L500.460974,623.026703 L506.188348,387.739216 L283.064286,538.237776 Z M275.620372,786.859101 C274.854016,786.859101 274.121084,786.675761 273.450225,786.316224 C271.934225,785.506669 271.000752,783.937562 271.015076,782.22083 L273.884732,535.725776 C273.901443,534.223338 274.658249,532.820904 275.90686,531.978015 L508.427729,375.14112 C509.841071,374.18394 511.72473,374.095842 513.224017,374.919683 C514.735242,375.741142 515.652003,377.326917 515.60903,379.050791 L509.607105,625.595848 C509.568907,627.079237 508.819263,628.45548 507.596914,629.281702 L278.225026,786.05669 C277.437184,786.5829 276.541908,786.859101 275.620372,786.859101 L275.620372,786.859101 Z" id="Fill-13" fill="#582FFF"></path>
                    <path d="M44.1891117,624.487711 L274.4515,780.038843 L277.287732,536.412945 L43.8286142,380.795143 L44.1891117,624.487711 Z M276.788766,784.493774 L41.8040986,625.752044 L41.4340515,376.335451 L279.689457,535.148611 L279.682295,535.793874 L276.788766,784.493774 Z" id="Fill-15" fill="#582FFF"></path>
                    <path d="M46.5741248,623.22171 L272.116623,775.584626 L274.886007,537.675612 L46.2231769,385.25555 L46.5741248,623.22171 Z M279.123643,788.947037 L39.4190855,627.017092 L39.0418763,371.876472 L282.088795,533.882611 L282.069695,535.818398 L279.123643,788.947037 Z" id="Fill-17" fill="#582FFF"></path>
                    <path d="M45.2102029,623.946023 L273.450463,778.130437 L276.258046,536.954632 L44.8544802,382.708311 L45.2102029,623.946023 Z M275.62061,784.475916 C275.171779,784.475916 274.744435,784.344958 274.376775,784.094949 L41.753247,626.950899 C41.1420725,626.536598 40.781575,625.85562 40.781575,625.124639 L40.4139153,378.570059 C40.4115279,377.75098 40.8627466,376.998571 41.5885163,376.615223 C42.2569885,376.248542 43.1880747,376.279496 43.8660964,376.729513 L279.722165,533.942613 C280.342889,534.354533 280.712936,535.052179 280.705774,535.804588 L277.833731,782.290119 C277.828956,783.104435 277.370575,783.84732 276.644805,784.225906 C276.334443,784.387817 275.978721,784.475916 275.62061,784.475916 L275.62061,784.475916 Z" id="Fill-19" fill="#582FFF"></path>
                    <path d="M47.5976033,622.679785 L271.113198,773.678364 L273.853934,538.217061 L47.2490429,387.166099 L47.5976033,622.679785 Z M275.62061,786.857434 C274.694299,786.857434 273.801411,786.583615 273.035056,786.064547 L40.4139153,628.920498 C39.1485931,628.063322 38.3941745,626.64184 38.3941745,625.122735 L38.0265148,378.572916 C38.02174,376.865709 38.9623758,375.306126 40.4783751,374.508477 C41.8797792,373.734638 43.792087,373.820355 45.1887163,374.748962 L281.047172,531.962062 C282.341143,532.816856 283.105111,534.26453 283.093174,535.826494 L280.223519,782.319167 C280.206807,784.009708 279.259009,785.547861 277.752559,786.333605 C277.100799,786.676475 276.360705,786.857434 275.62061,786.857434 L275.62061,786.857434 Z" id="Fill-21" fill="#582FFF"></path>
                    <path d="M353.448434,257.828103 L399.327109,287.676853 L444.51105,257.928107 L398.6467,228.596043 L353.448434,257.828103 Z M399.334271,290.522199 L349.069941,257.823341 L398.639537,225.762602 L448.889543,257.899534 L399.334271,290.522199 Z" id="Fill-23" fill="#582FFF"></path>
                    <path d="M357.829075,257.833817 L399.319708,284.827697 L440.134706,257.957632 L398.653623,231.428055 L357.829075,257.833817 Z M399.343582,293.370878 L344.693597,257.81715 L398.632136,222.930114 L453.267796,257.871914 L399.343582,293.370878 Z" id="Fill-25" fill="#582FFF"></path>
                    <path d="M355.325169,257.832627 L399.32496,286.45514 L442.632405,257.939774 L398.646938,229.810136 L355.325169,257.832627 Z M399.341672,291.312467 C398.811669,291.338658 398.477433,291.188653 398.116935,290.952929 L350.049014,259.677935 C349.41874,259.270777 349.041531,258.577893 349.041531,257.825484 C349.041531,257.073074 349.421128,256.380191 350.058564,255.970652 L397.436526,225.324252 C398.155134,224.857568 399.122031,224.859949 399.840639,225.31949 L447.896623,256.051607 C448.531671,256.461146 448.911268,257.151649 448.916043,257.896915 C448.920818,258.644562 448.55077,259.339827 447.925272,259.756509 L400.549696,290.945786 C400.174875,291.188653 399.761854,291.312467 399.341672,291.312467 L399.341672,291.312467 Z" id="Fill-27" fill="#582FFF"></path>
                    <path d="M359.703662,257.838579 L399.31541,283.608604 L438.2563,257.969537 L398.6541,232.644768 L359.703662,257.838579 Z M399.217527,293.697081 C398.116935,293.697081 397.360129,293.301828 396.815802,292.951815 L348.745493,261.672058 C347.439585,260.829169 346.656518,259.388638 346.656518,257.826674 C346.656518,256.259948 347.44436,254.817036 348.764593,253.969385 L396.13778,223.325367 C397.65378,222.349139 399.613835,222.344377 401.129835,223.313462 L449.183432,254.04796 C450.503664,254.897992 451.293894,256.33138 451.303443,257.883819 C451.312993,259.433878 450.546637,260.874409 449.250279,261.736346 L401.865154,292.932766 C401.110736,293.423261 400.265596,293.680414 399.408519,293.692319 C399.344059,293.6947 399.277212,293.697081 399.217527,293.697081 L399.217527,293.697081 Z" id="Fill-29" fill="#582FFF"></path>
                    <path d="M400.515557,289.746693 L399.95213,338.300914 L444.269445,308.702173 L445.451208,260.162239 L400.515557,289.746693 Z M397.512207,342.796323 L398.142481,288.453787 L398.672483,288.108536 L447.948429,255.666831 L446.625809,309.99508 L397.512207,342.796323 Z" id="Fill-31" fill="#582FFF"></path>
                    <path d="M402.888871,291.037218 L402.392292,333.805506 L441.91332,307.409267 L442.954226,264.660028 L402.888871,291.037218 Z M395.07491,347.291731 L395.772031,287.1585 L397.362039,286.117984 L450.445889,251.169041 L448.9848,311.285605 L395.07491,347.291731 Z" id="Fill-33" fill="#582FFF"></path>
                    <path d="M401.534499,290.302429 L400.997334,336.375603 L443.261485,308.145962 L444.378788,262.089455 L401.534499,290.302429 Z M398.731691,342.759178 C398.373581,342.759178 398.008309,342.668699 397.683622,342.497264 C396.948303,342.10201 396.506634,341.344839 396.516183,340.520998 L397.110646,289.076192 C397.122583,288.34045 397.497405,287.661852 398.108579,287.257075 L445.47938,256.067798 C446.174113,255.6154 447.064614,255.59159 447.771284,255.977318 C448.497054,256.377334 448.933948,257.136886 448.917236,257.963108 L447.663851,309.400771 C447.644752,310.117465 447.27948,310.786538 446.68263,311.184172 L399.968364,342.385355 C399.598317,342.632983 399.17336,342.759178 398.731691,342.759178 L398.731691,342.759178 Z" id="Fill-35" fill="#582FFF"></path>
                    <path d="M403.907814,291.592954 L403.437496,331.877814 L440.902972,306.855437 L441.881806,266.589625 L403.907814,291.592954 Z M398.73193,345.140221 C397.987061,345.140221 397.239804,344.9545 396.571332,344.604486 C395.033846,343.775883 394.107535,342.204395 394.129022,340.490045 L394.725872,289.05 C394.747358,287.51899 395.518489,286.109413 396.795748,285.268905 L444.164161,254.082009 C445.603763,253.141497 447.42535,253.070065 448.919863,253.891525 C450.4287,254.722509 451.338299,256.30114 451.304876,258.01311 L450.05149,309.457916 C450.013292,310.95083 449.249324,312.334216 448.010263,313.162819 L401.295998,344.364001 C400.536804,344.871163 399.651079,345.140221 398.73193,345.140221 L398.73193,345.140221 Z" id="Fill-37" fill="#582FFF"></path>
                    <path d="M352.529762,308.627647 L397.563297,338.347821 L398.129111,289.738836 L352.45814,260.025805 L352.529762,308.627647 Z M399.900562,342.747987 L350.144749,309.906267 L350.063577,255.625638 L400.528449,288.460216 L399.900562,342.747987 Z" id="Fill-39" fill="#582FFF"></path>
                    <path d="M354.914775,307.346408 L395.230807,333.952178 L395.727386,291.019599 L354.852703,264.425734 L354.914775,307.346408 Z M402.237827,347.145535 L347.759736,311.18703 L347.669015,251.225234 L402.932561,287.181358 L402.237827,347.145535 Z" id="Fill-41" fill="#582FFF"></path>
                    <path d="M353.550853,308.078817 L396.564648,336.465606 L397.099425,290.290047 L353.484006,261.912781 L353.550853,308.078817 Z M398.732407,342.758702 C398.2979,342.758702 397.87533,342.634888 397.514833,342.396784 L350.112996,311.109884 C349.492272,310.702725 349.119838,310.012223 349.119838,309.266957 L349.041054,257.829293 C349.038666,257.019739 349.48511,256.272092 350.203718,255.883982 C350.891289,255.507777 351.793726,255.536349 352.466973,255.97208 L400.542057,287.249456 C401.179493,287.668519 401.556702,288.368546 401.547152,289.128098 L400.950302,340.572905 C400.94314,341.382459 400.487147,342.125345 399.766152,342.50393 C399.448627,342.672984 399.097679,342.758702 398.732407,342.758702 L398.732407,342.758702 Z" id="Fill-43" fill="#582FFF"></path>
                    <path d="M355.936105,306.797577 L394.227621,332.067583 L394.697939,291.57081 L355.878807,266.315091 L355.936105,306.797577 Z M398.732646,345.141888 C397.830209,345.141888 396.95642,344.879973 396.202001,344.387097 L348.797778,313.097816 C347.506194,312.245403 346.732676,310.814396 346.732676,309.266719 L346.656279,257.833817 C346.651505,256.148039 347.575428,254.595599 349.067554,253.790807 C350.516706,252.993158 352.369329,253.069351 353.770733,253.976528 L401.845816,285.256285 C403.175598,286.125366 403.953891,287.584945 403.934792,289.161195 L403.337941,340.601239 C403.32123,342.284636 402.378206,343.82279 400.878919,344.610915 C400.224771,344.960928 399.496614,345.141888 398.732646,345.141888 L398.732646,345.141888 Z" id="Fill-45" fill="#582FFF"></path>
                    <path d="M8.43396967,680.854846 L142.462633,772.872619 L274.52169,681.054854 L140.519289,590.637142 L8.43396967,680.854846 Z M142.472182,775.767967 L141.786998,775.301282 L4.21543303,680.850084 L140.509739,587.758462 L141.182986,588.21086 L278.740227,681.026282 L142.472182,775.767967 Z" id="Fill-47" fill="#582FFF"></path>
                    <g id="Group-51" transform="translate(0.000000, 584.355438)">
                        <mask id="mask-2" fill="white">
                            <use xlink:href="#path-1"></use>
                        </mask>
                        <g id="Clip-50"></g>
                        <path d="M12.6539388,96.5041708 L142.454515,185.619452 L270.306973,96.7303698 L140.530271,9.160385 L12.6539388,96.5041708 Z M142.480777,194.307877 L140.434775,192.907824 L-0.00167118033,96.4898845 L140.501622,0.521962432 L142.518975,1.88153776 L282.957808,96.6422713 L142.480777,194.307877 Z" id="Fill-49" fill="#582FFF" mask="url(#mask-2)"></path>
                    </g>
                    <path d="M10.2431418,680.857227 L142.45738,771.629715 L272.716338,681.066759 L140.523586,591.870522 L10.2431418,680.857227 Z M142.46693,776.532281 C142.013324,776.532281 141.581204,776.396562 141.20877,776.14179 L5.06964492,682.673963 C4.46802,682.259662 4.10990992,681.578683 4.10990992,680.850084 C4.10990992,680.121485 4.46802,679.440507 5.07203232,679.028587 L139.263038,587.375114 C140.003133,586.872714 141.008228,586.86319 141.757872,587.36559 L277.87551,679.209546 C278.477135,679.616704 278.844795,680.295301 278.84957,681.021519 C278.854344,681.754881 278.496234,682.43824 277.894609,682.854922 L143.73464,776.132266 C143.36698,776.3918 142.925311,776.532281 142.46693,776.532281 L142.46693,776.532281 Z" id="Fill-52" fill="#582FFF"></path>
                    <path d="M14.4607234,680.86199 L142.449263,768.731986 L268.501621,681.097713 L140.534568,594.751584 L14.4607234,680.86199 Z M142.465975,778.913324 C141.527727,778.913324 140.622902,778.632361 139.851771,778.099007 L3.71503389,684.633561 C2.46642343,683.776386 1.72155449,682.362046 1.72155449,680.850084 C1.72155449,679.33336 2.47119824,677.919021 3.72458349,677.064227 L137.91559,585.408373 C139.465013,584.353571 141.542051,584.348809 143.093861,585.389324 L279.213887,677.238043 C280.46966,678.080932 281.226466,679.49289 281.236015,681.007233 C281.245565,682.523957 280.507858,683.947821 279.25686,684.809758 L145.101665,778.084721 C144.337697,778.625218 143.423323,778.913324 142.465975,778.913324 L142.465975,778.913324 Z" id="Fill-54" fill="#582FFF"></path>
                    <path d="M143.650842,774.945555 L141.996373,909.810189 L271.894833,818.323389 L275.378051,683.363513 L143.650842,774.945555 Z M139.551675,914.446079 L141.280153,773.695507 L141.783895,773.343113 L277.887209,678.718099 L274.24881,819.578198 L139.551675,914.446079 Z" id="Fill-56" fill="#582FFF"></path>
                    <g id="Group-60" transform="translate(137.081827, 673.835057)">
                        <mask id="mask-4" fill="white">
                            <use xlink:href="#path-3"></use>
                        </mask>
                        <g id="Clip-59"></g>
                        <path d="M8.94256803,102.363879 L7.35972152,231.337813 L132.457119,143.232094 L135.787543,14.1748228 L8.94256803,102.363879 Z M0.0280146462,245.247864 L1.82811461,98.6113556 L3.32978951,97.5565537 L143.312629,0.236199426 L139.523825,146.998903 L138.54499,147.687025 L0.0280146462,245.247864 Z" id="Fill-58" fill="#582FFF" mask="url(#mask-4)"></path>
                    </g>
                    <path d="M144.669784,775.485099 L143.043965,907.823447 L270.884485,817.784321 L274.303243,685.353112 L144.669784,775.485099 Z M140.773547,914.337979 C140.420211,914.337979 140.064489,914.249881 139.744577,914.085589 C138.997321,913.692717 138.546102,912.933164 138.555652,912.097418 L140.250706,774.294578 C140.257868,773.582646 140.613591,772.915954 141.198504,772.506415 L275.363249,679.22669 C276.057982,678.755243 276.979519,678.714765 277.683802,679.093351 C278.421509,679.493366 278.867953,680.257681 278.848853,681.091046 L275.289239,819.003414 C275.27014,819.703441 274.916805,820.36299 274.341441,820.760624 L142.050806,913.933202 C141.671209,914.199879 141.231928,914.337979 140.773547,914.337979 L140.773547,914.337979 Z" id="Fill-61" fill="#582FFF"></path>
                    <path d="M147.043099,776.73848 L145.491289,903.186128 L268.530747,816.528083 L271.794324,689.999479 L147.043099,776.73848 Z M140.773785,916.719974 C140.038466,916.719974 139.303147,916.539015 138.644224,916.196145 C137.087639,915.381828 136.144616,913.798435 136.16849,912.060274 L137.863544,774.264576 C137.880256,772.790711 138.617963,771.402563 139.830762,770.554912 L274.000282,677.275187 C275.435109,676.294197 277.318768,676.191813 278.810894,676.994224 C280.353154,677.827589 281.279466,679.418125 281.236493,681.149143 L277.674491,819.063893 C277.636293,820.525853 276.900973,821.887809 275.702498,822.716412 L143.428575,915.877085 C142.640733,916.429487 141.723971,916.719974 140.773785,916.719974 L140.773785,916.719974 Z" id="Fill-63" fill="#582FFF"></path>
                    <path d="M7.73923613,818.14862 L139.607302,909.866381 L141.264158,774.942221 L7.52198269,683.119694 L7.73923613,818.14862 Z M141.939792,914.390362 L5.35422305,819.389143 L5.12742001,678.586189 L143.66827,773.699317 L141.939792,914.390362 Z" id="Fill-65" fill="#582FFF"></path>
                    <path d="M10.1266366,816.904525 L137.277199,905.34121 L138.862433,776.181554 L9.91654537,687.65439 L10.1266366,816.904525 Z M144.272282,918.915534 L2.96920998,820.633238 L2.73524473,674.051493 L146.069995,772.457603 L144.272282,918.915534 Z" id="Fill-67" fill="#582FFF"></path>
                    <path d="M8.76271472,817.618362 L138.608652,907.926546 L140.234472,775.473908 L8.55023608,685.060958 L8.76271472,817.618362 Z M140.774024,914.338694 C140.325193,914.338694 139.876362,914.200593 139.508702,913.945822 L5.27949742,820.585141 C4.6874221,820.168459 4.33408683,819.492243 4.33169943,818.773168 L4.10967118,680.856037 C4.10728378,680.036958 4.55611507,679.28693 5.28665962,678.89882 C6.03152857,678.513091 6.92202895,678.574998 7.58572628,679.032158 L143.722464,772.497605 C144.333638,772.919049 144.691748,773.609552 144.684586,774.345294 L142.991919,912.152896 C142.979982,912.976737 142.516827,913.719622 141.786282,914.095827 C141.47592,914.252976 141.122585,914.338694 140.774024,914.338694 L140.774024,914.338694 Z" id="Fill-69" fill="#582FFF"></path>
                    <path d="M11.1477278,816.374505 L136.276162,903.401612 L137.832747,776.71586 L10.9447988,689.595892 L11.1477278,816.374505 Z M140.774024,916.721165 C139.847713,916.721165 138.921401,916.430678 138.155046,915.909229 L3.91629175,822.539025 C2.6820057,821.674706 1.94668635,820.272272 1.94429895,818.781739 L1.72227071,680.859847 C1.7174959,679.159782 2.65096949,677.604961 4.16219399,676.800169 C5.71639171,675.997758 7.53797827,676.104905 8.94176975,677.073989 L145.078507,770.537054 C146.34383,771.408516 147.083924,772.841903 147.071987,774.368152 L145.37932,912.182898 C145.355446,913.890105 144.398098,915.435402 142.874937,916.214003 C142.225564,916.544968 141.499794,916.721165 140.774024,916.721165 L140.774024,916.721165 Z" id="Fill-71" fill="#582FFF"></path>
                    <polygon id="Fill-73" fill="#582FFF" points="597.312798 256.659725 517.700154 256.659725 517.700154 243.873527 568.36318 176.161437 521.355264 176.161437 521.355264 158.08218 597.171941 158.08218 597.171941 170.523128 547.61667 238.649519 597.312798 238.649519"></polygon>
                    <g id="Group-77" transform="translate(589.687918, 0.000000)">
                        <mask id="mask-6" fill="white">
                            <use xlink:href="#path-5"></use>
                        </mask>
                        <g id="Clip-76"></g>
                        <polygon id="Fill-75" fill="#582FFF" mask="url(#mask-6)" points="106.993501 132.800032 0.536926368 132.800032 0.536926368 115.701765 68.2818024 25.155477 5.42154775 25.155477 5.42154775 0.978370406 106.809671 0.978370406 106.809671 17.6170961 40.5378214 108.715786 106.993501 108.715786"></polygon>
                    </g>
                    <polygon id="Fill-78" fill="#582FFF" points="522.401184 342.401546 475.605748 342.401546 475.605748 334.886975 505.383794 295.083086 477.754408 295.083086 477.754408 284.458874 522.320013 284.458874 522.320013 291.771056 493.19134 331.81543 522.401184 331.81543"></polygon>
                </g>
            </g>
        </g>
    </g>
</svg>